<svg width="380" height="90" viewBox="0 0 380 90" fill="none" xmlns="http://www.w3.org/2000/svg">
<rect width="380" height="90" fill="white"/>
<rect x="70.5" y="30.5" width="58" height="36" stroke="#51C5FF" stroke-width="2"/>
<path d="M76.2012 31L122.799 31L99.5 51.1777L76.2012 31Z" stroke="#51C5FF" stroke-width="2"/>
<path d="M157.076 38.716C157.055 38.812 157.039 38.924 157.028 39.052C157.017 39.1693 157.007 39.2973 156.996 39.436C156.985 39.5747 156.975 39.7027 156.964 39.82C156.953 40.0653 156.937 40.3853 156.916 40.78C156.905 41.1747 156.895 41.612 156.884 42.092C156.873 42.5613 156.863 43.0413 156.852 43.532C156.841 44.012 156.836 44.46 156.836 44.876C156.836 45.292 156.836 45.7507 156.836 46.252C156.847 46.7427 156.857 47.2333 156.868 47.724C156.889 48.204 156.9 48.652 156.9 49.068C156.911 49.4733 156.916 49.7987 156.916 50.044C156.916 50.5347 156.857 50.924 156.74 51.212C156.623 51.5 156.457 51.7027 156.244 51.82C156.041 51.948 155.796 52.012 155.508 52.012C155.199 52.012 154.852 51.9373 154.468 51.788C154.084 51.6493 153.716 51.4573 153.364 51.212C153.023 50.9667 152.74 50.684 152.516 50.364C152.292 50.044 152.18 49.708 152.18 49.356C152.18 48.876 152.361 48.4067 152.724 47.948C153.097 47.4893 153.577 47.0627 154.164 46.668C154.761 46.2733 155.391 45.9533 156.052 45.708C156.777 45.42 157.519 45.2067 158.276 45.068C159.033 44.9187 159.727 44.844 160.356 44.844C161.135 44.844 161.823 44.9773 162.42 45.244C163.028 45.5107 163.503 45.884 163.844 46.364C164.196 46.8333 164.372 47.388 164.372 48.028C164.372 48.668 164.239 49.2333 163.972 49.724C163.716 50.2147 163.332 50.6253 162.82 50.956C162.319 51.2867 161.7 51.5427 160.964 51.724C160.612 51.7987 160.26 51.8467 159.908 51.868C159.567 51.9 159.257 51.9267 158.98 51.948L158.532 50.652C158.831 50.6627 159.14 50.6627 159.46 50.652C159.791 50.6413 160.105 50.604 160.404 50.54C160.873 50.4547 161.311 50.3107 161.716 50.108C162.132 49.8947 162.463 49.6173 162.708 49.276C162.964 48.9347 163.092 48.524 163.092 48.044C163.092 47.5853 162.969 47.2013 162.724 46.892C162.479 46.5827 162.148 46.348 161.732 46.188C161.316 46.028 160.852 45.948 160.34 45.948C159.636 45.948 158.948 46.0227 158.276 46.172C157.604 46.3213 156.921 46.5347 156.228 46.812C155.716 47.004 155.247 47.244 154.82 47.532C154.393 47.8093 154.052 48.1027 153.796 48.412C153.551 48.7213 153.428 49.0147 153.428 49.292C153.428 49.4733 153.487 49.6493 153.604 49.82C153.732 49.98 153.887 50.124 154.068 50.252C154.249 50.38 154.441 50.4813 154.644 50.556C154.847 50.62 155.023 50.652 155.172 50.652C155.353 50.652 155.492 50.588 155.588 50.46C155.695 50.332 155.748 50.1347 155.748 49.868C155.748 49.5587 155.743 49.132 155.732 48.588C155.721 48.0333 155.711 47.436 155.7 46.796C155.689 46.1453 155.684 45.5267 155.684 44.94C155.684 44.4813 155.684 43.9907 155.684 43.468C155.695 42.9453 155.7 42.4387 155.7 41.948C155.711 41.4573 155.716 41.0253 155.716 40.652C155.727 40.2787 155.732 40.012 155.732 39.852C155.732 39.7453 155.727 39.6227 155.716 39.484C155.716 39.3347 155.711 39.1907 155.7 39.052C155.689 38.9133 155.673 38.8013 155.652 38.716H157.076ZM162.036 40.492C162.42 40.6947 162.847 40.94 163.316 41.228C163.785 41.5053 164.233 41.788 164.66 42.076C165.097 42.364 165.444 42.6147 165.7 42.828L165.044 43.852C164.852 43.66 164.607 43.4573 164.308 43.244C164.009 43.02 163.689 42.8013 163.348 42.588C163.007 42.364 162.671 42.156 162.34 41.964C162.009 41.7613 161.716 41.5907 161.46 41.452L162.036 40.492ZM152.436 41.596C152.873 41.6493 153.247 41.6867 153.556 41.708C153.876 41.7187 154.185 41.724 154.484 41.724C154.879 41.724 155.321 41.7027 155.812 41.66C156.303 41.6173 156.809 41.564 157.332 41.5C157.855 41.4253 158.361 41.34 158.852 41.244C159.353 41.1373 159.801 41.0253 160.196 40.908L160.228 42.156C159.812 42.252 159.348 42.348 158.836 42.444C158.324 42.5293 157.801 42.604 157.268 42.668C156.745 42.732 156.244 42.7853 155.764 42.828C155.284 42.8707 154.868 42.892 154.516 42.892C154.057 42.892 153.668 42.8867 153.348 42.876C153.039 42.8653 152.745 42.844 152.468 42.812L152.436 41.596ZM171.956 45.82H177.444V50.524H171.956V49.5H176.308V46.844H171.956V45.82ZM171.428 45.82H172.548V51.484H171.428V45.82ZM168.532 41.068H172.98V41.948H168.532V41.068ZM175.908 41.068H180.452V41.948H175.908V41.068ZM179.908 38.748H181.124V51.164C181.124 51.5693 181.071 51.8733 180.964 52.076C180.857 52.2893 180.671 52.4493 180.404 52.556C180.137 52.6627 179.764 52.7267 179.284 52.748C178.815 52.7693 178.228 52.78 177.524 52.78C177.513 52.6627 177.481 52.5293 177.428 52.38C177.385 52.2307 177.332 52.0813 177.268 51.932C177.215 51.7827 177.156 51.6547 177.092 51.548C177.455 51.5587 177.796 51.564 178.116 51.564C178.447 51.564 178.735 51.564 178.98 51.564C179.236 51.564 179.412 51.564 179.508 51.564C179.657 51.5533 179.759 51.5213 179.812 51.468C179.876 51.404 179.908 51.3027 179.908 51.164V38.748ZM168.628 38.748H173.748V44.38H168.628V43.42H172.628V39.708H168.628V38.748ZM180.548 38.748V39.708H176.34V43.436H180.548V44.396H175.204V38.748H180.548ZM167.972 38.748H169.156V52.796H167.972V38.748ZM186.068 40.332C186.047 40.46 186.025 40.62 186.004 40.812C185.993 41.004 185.977 41.196 185.956 41.388C185.945 41.58 185.94 41.7453 185.94 41.884C185.929 42.2147 185.924 42.5933 185.924 43.02C185.935 43.436 185.945 43.8733 185.956 44.332C185.977 44.78 186.009 45.228 186.052 45.676C186.137 46.5613 186.281 47.34 186.484 48.012C186.687 48.6733 186.932 49.1907 187.22 49.564C187.519 49.9373 187.855 50.124 188.228 50.124C188.431 50.124 188.628 50.0333 188.82 49.852C189.012 49.66 189.193 49.4093 189.364 49.1C189.545 48.78 189.705 48.428 189.844 48.044C189.993 47.6493 190.116 47.2547 190.212 46.86L191.22 47.996C190.9 48.9027 190.575 49.6227 190.244 50.156C189.924 50.6787 189.593 51.0573 189.252 51.292C188.921 51.5267 188.575 51.644 188.212 51.644C187.711 51.644 187.225 51.4627 186.756 51.1C186.287 50.7267 185.881 50.1293 185.54 49.308C185.199 48.476 184.953 47.372 184.804 45.996C184.751 45.5267 184.708 45.02 184.676 44.476C184.655 43.932 184.639 43.4147 184.628 42.924C184.628 42.4333 184.628 42.0333 184.628 41.724C184.628 41.5427 184.623 41.308 184.612 41.02C184.601 40.732 184.569 40.492 184.516 40.3L186.068 40.332ZM194.404 40.78C194.692 41.1427 194.964 41.5693 195.22 42.06C195.487 42.54 195.727 43.0573 195.94 43.612C196.164 44.156 196.361 44.7213 196.532 45.308C196.713 45.8947 196.857 46.4813 196.964 47.068C197.081 47.644 197.167 48.1987 197.22 48.732L195.94 49.26C195.876 48.5347 195.764 47.7987 195.604 47.052C195.444 46.2947 195.247 45.564 195.012 44.86C194.777 44.1453 194.505 43.4733 194.196 42.844C193.887 42.2147 193.54 41.6707 193.156 41.212L194.404 40.78ZM202.468 43.292H210.548V44.364H202.468V43.292ZM202.18 51.052H210.756V52.124H202.18V51.052ZM201.636 46.38H211.428V52.796H210.212V47.468H202.82V52.796H201.636V46.38ZM206.468 39.276C206.031 39.9267 205.46 40.5987 204.756 41.292C204.063 41.9853 203.289 42.652 202.436 43.292C201.593 43.932 200.713 44.4973 199.796 44.988C199.743 44.9027 199.673 44.8013 199.588 44.684C199.503 44.5667 199.412 44.4493 199.316 44.332C199.22 44.2147 199.129 44.1187 199.044 44.044C199.983 43.564 200.884 42.9933 201.748 42.332C202.623 41.6707 203.407 40.972 204.1 40.236C204.804 39.5 205.364 38.7853 205.78 38.092H207.012C207.439 38.6893 207.924 39.2707 208.468 39.836C209.023 40.4013 209.609 40.9347 210.228 41.436C210.857 41.9373 211.497 42.396 212.148 42.812C212.809 43.2173 213.455 43.5587 214.084 43.836C213.945 43.9853 213.807 44.156 213.668 44.348C213.529 44.54 213.401 44.7267 213.284 44.908C212.655 44.5667 212.02 44.1827 211.38 43.756C210.74 43.3293 210.116 42.8707 209.508 42.38C208.9 41.8787 208.335 41.3667 207.812 40.844C207.289 40.3107 206.841 39.788 206.468 39.276ZM222.948 50.348C223.631 50.252 224.276 50.0973 224.884 49.884C225.503 49.6707 226.052 49.388 226.532 49.036C227.012 48.684 227.391 48.252 227.668 47.74C227.945 47.228 228.079 46.6307 228.068 45.948C228.068 45.6387 228.004 45.3187 227.876 44.988C227.759 44.6573 227.572 44.348 227.316 44.06C227.071 43.772 226.751 43.5427 226.356 43.372C225.961 43.1907 225.503 43.1 224.98 43.1C223.956 43.1 222.985 43.356 222.068 43.868C221.151 44.3693 220.303 45.0253 219.524 45.836V44.428C220.495 43.5107 221.465 42.8653 222.436 42.492C223.417 42.1187 224.329 41.932 225.172 41.932C225.908 41.932 226.591 42.0973 227.22 42.428C227.86 42.748 228.377 43.212 228.772 43.82C229.167 44.428 229.364 45.148 229.364 45.98C229.364 46.78 229.225 47.4947 228.948 48.124C228.671 48.7427 228.271 49.276 227.748 49.724C227.236 50.172 226.623 50.5507 225.908 50.86C225.204 51.1587 224.415 51.388 223.54 51.548L222.948 50.348ZM219.348 42.636C219.22 42.6573 219.023 42.684 218.756 42.716C218.5 42.748 218.201 42.7907 217.86 42.844C217.529 42.8867 217.193 42.9293 216.852 42.972C216.511 43.0147 216.191 43.0627 215.892 43.116L215.764 41.788C215.935 41.7987 216.1 41.804 216.26 41.804C216.431 41.7933 216.612 41.7827 216.804 41.772C217.028 41.7613 217.3 41.74 217.62 41.708C217.951 41.6653 218.292 41.6227 218.644 41.58C218.996 41.5267 219.327 41.4733 219.636 41.42C219.956 41.356 220.207 41.292 220.388 41.228L220.868 41.788C220.772 41.916 220.665 42.076 220.548 42.268C220.431 42.4493 220.313 42.636 220.196 42.828C220.079 43.02 219.977 43.1907 219.892 43.34L219.396 45.516C219.215 45.804 218.991 46.1453 218.724 46.54C218.457 46.9347 218.175 47.3507 217.876 47.788C217.588 48.2147 217.295 48.6413 216.996 49.068C216.697 49.484 216.425 49.868 216.18 50.22L215.38 49.116C215.572 48.8707 215.807 48.5667 216.084 48.204C216.361 47.8413 216.649 47.4573 216.948 47.052C217.257 46.636 217.556 46.2253 217.844 45.82C218.132 45.4147 218.388 45.0413 218.612 44.7C218.847 44.3587 219.023 44.0867 219.14 43.884L219.204 43.068L219.348 42.636ZM219.188 39.98C219.188 39.7987 219.183 39.6067 219.172 39.404C219.172 39.2013 219.156 38.9987 219.124 38.796L220.628 38.844C220.585 39.0573 220.532 39.3933 220.468 39.852C220.415 40.3 220.356 40.8333 220.292 41.452C220.228 42.0707 220.164 42.7213 220.1 43.404C220.047 44.0867 220.004 44.764 219.972 45.436C219.94 46.0973 219.924 46.7107 219.924 47.276C219.924 47.756 219.924 48.204 219.924 48.62C219.924 49.0253 219.929 49.4307 219.94 49.836C219.951 50.2307 219.967 50.6627 219.988 51.132C219.999 51.2707 220.009 51.4307 220.02 51.612C220.031 51.7933 220.047 51.9587 220.068 52.108H218.676C218.697 52.0013 218.708 51.8467 218.708 51.644C218.719 51.452 218.724 51.292 218.724 51.164C218.735 50.652 218.74 50.1987 218.74 49.804C218.74 49.4093 218.74 49.004 218.74 48.588C218.751 48.1613 218.761 47.6547 218.772 47.068C218.772 46.8333 218.783 46.5133 218.804 46.108C218.825 45.692 218.852 45.2387 218.884 44.748C218.916 44.2467 218.948 43.74 218.98 43.228C219.012 42.716 219.044 42.236 219.076 41.788C219.108 41.3293 219.135 40.94 219.156 40.62C219.177 40.3 219.188 40.0867 219.188 39.98ZM242.34 39.164C242.329 39.2493 242.319 39.3613 242.308 39.5C242.297 39.6387 242.287 39.7827 242.276 39.932C242.276 40.0707 242.271 40.1987 242.26 40.316C242.26 40.6467 242.255 40.988 242.244 41.34C242.244 41.692 242.239 42.0333 242.228 42.364C242.228 42.684 242.223 42.9827 242.212 43.26C242.201 43.6653 242.185 44.1133 242.164 44.604C242.153 45.084 242.132 45.5427 242.1 45.98C242.079 46.4173 242.036 46.7747 241.972 47.052C241.897 47.404 241.764 47.644 241.572 47.772C241.391 47.9 241.113 47.964 240.74 47.964C240.548 47.964 240.313 47.9533 240.036 47.932C239.759 47.9 239.492 47.868 239.236 47.836C238.98 47.804 238.777 47.772 238.628 47.74L238.66 46.636C238.937 46.7 239.225 46.7533 239.524 46.796C239.833 46.828 240.079 46.844 240.26 46.844C240.463 46.844 240.607 46.8173 240.692 46.764C240.788 46.7107 240.847 46.5933 240.868 46.412C240.911 46.1987 240.943 45.9213 240.964 45.58C240.985 45.228 241.001 44.8493 241.012 44.444C241.033 44.028 241.049 43.6333 241.06 43.26C241.06 42.9613 241.06 42.6467 241.06 42.316C241.06 41.9747 241.06 41.6387 241.06 41.308C241.06 40.9667 241.06 40.652 241.06 40.364C241.06 40.2467 241.055 40.1133 241.044 39.964C241.044 39.8147 241.039 39.6707 241.028 39.532C241.017 39.3827 241.001 39.26 240.98 39.164H242.34ZM236.004 39.66C235.983 39.852 235.967 40.0547 235.956 40.268C235.945 40.4813 235.94 40.7107 235.94 40.956C235.94 41.2973 235.935 41.7347 235.924 42.268C235.924 42.7907 235.919 43.3507 235.908 43.948C235.908 44.5347 235.908 45.1107 235.908 45.676C235.908 46.2413 235.908 46.748 235.908 47.196C235.908 47.644 235.913 47.98 235.924 48.204C235.945 48.6307 235.972 48.9933 236.004 49.292C236.047 49.5907 236.153 49.8307 236.324 50.012C236.495 50.1933 236.772 50.3267 237.156 50.412C237.54 50.4973 238.079 50.54 238.772 50.54C239.348 50.54 239.935 50.524 240.532 50.492C241.129 50.4493 241.689 50.4013 242.212 50.348C242.745 50.284 243.183 50.22 243.524 50.156L243.476 51.516C243.124 51.548 242.687 51.5853 242.164 51.628C241.641 51.6707 241.092 51.7027 240.516 51.724C239.94 51.756 239.38 51.772 238.836 51.772C237.908 51.772 237.172 51.7133 236.628 51.596C236.084 51.4787 235.679 51.292 235.412 51.036C235.145 50.7693 234.964 50.4173 234.868 49.98C234.783 49.5427 234.729 49.0093 234.708 48.38C234.708 48.156 234.703 47.8413 234.692 47.436C234.692 47.02 234.692 46.556 234.692 46.044C234.692 45.5213 234.692 44.9933 234.692 44.46C234.692 43.9267 234.692 43.42 234.692 42.94C234.703 42.46 234.708 42.0493 234.708 41.708C234.708 41.3667 234.708 41.1373 234.708 41.02C234.708 40.7747 234.697 40.5507 234.676 40.348C234.665 40.1347 234.644 39.9053 234.612 39.66H236.004ZM231.22 43.5C231.476 43.5 231.743 43.4893 232.02 43.468C232.308 43.4467 232.596 43.4253 232.884 43.404C233.236 43.372 233.737 43.324 234.388 43.26C235.039 43.196 235.775 43.1267 236.596 43.052C237.428 42.9773 238.287 42.9027 239.172 42.828C240.057 42.7427 240.916 42.668 241.748 42.604C242.591 42.5293 243.343 42.476 244.004 42.444C244.207 42.4227 244.415 42.4067 244.628 42.396C244.852 42.3853 245.06 42.3747 245.252 42.364V43.612C245.167 43.6013 245.049 43.6013 244.9 43.612C244.761 43.612 244.607 43.612 244.436 43.612C244.276 43.612 244.127 43.612 243.988 43.612C243.561 43.6227 243.044 43.6493 242.436 43.692C241.828 43.724 241.167 43.772 240.452 43.836C239.748 43.8893 239.028 43.9533 238.292 44.028C237.556 44.092 236.847 44.1613 236.164 44.236C235.481 44.3107 234.863 44.38 234.308 44.444C233.764 44.4973 233.321 44.5453 232.98 44.588C232.82 44.6093 232.639 44.636 232.436 44.668C232.244 44.6893 232.052 44.716 231.86 44.748C231.668 44.7693 231.503 44.7907 231.364 44.812L231.22 43.5ZM252.884 42.044C253.343 42.0867 253.791 42.1187 254.228 42.14C254.665 42.1613 255.124 42.172 255.604 42.172C256.564 42.172 257.519 42.1347 258.468 42.06C259.417 41.9853 260.297 41.868 261.108 41.708V42.94C260.255 43.0787 259.353 43.18 258.404 43.244C257.465 43.308 256.521 43.3453 255.572 43.356C255.113 43.356 254.665 43.3453 254.228 43.324C253.801 43.3027 253.353 43.276 252.884 43.244V42.044ZM258.484 39.18C258.463 39.34 258.441 39.5 258.42 39.66C258.409 39.82 258.399 39.98 258.388 40.14C258.377 40.332 258.367 40.5773 258.356 40.876C258.345 41.1747 258.34 41.4947 258.34 41.836C258.34 42.1667 258.34 42.492 258.34 42.812C258.34 43.42 258.351 44.028 258.372 44.636C258.393 45.244 258.42 45.836 258.452 46.412C258.484 46.988 258.511 47.532 258.532 48.044C258.564 48.5453 258.58 49.004 258.58 49.42C258.58 49.74 258.532 50.0547 258.436 50.364C258.351 50.6733 258.201 50.9507 257.988 51.196C257.785 51.4413 257.503 51.6333 257.14 51.772C256.788 51.9213 256.345 51.996 255.812 51.996C254.735 51.996 253.908 51.7933 253.332 51.388C252.767 50.9827 252.484 50.4227 252.484 49.708C252.484 49.26 252.612 48.8547 252.868 48.492C253.135 48.1187 253.508 47.8253 253.988 47.612C254.479 47.3987 255.076 47.292 255.78 47.292C256.463 47.292 257.087 47.372 257.652 47.532C258.228 47.6813 258.756 47.884 259.236 48.14C259.727 48.3853 260.175 48.6627 260.58 48.972C260.985 49.2707 261.359 49.5693 261.7 49.868L260.996 50.94C260.441 50.4067 259.881 49.9427 259.316 49.548C258.761 49.1533 258.185 48.844 257.588 48.62C256.991 48.396 256.356 48.284 255.684 48.284C255.076 48.284 254.58 48.4067 254.196 48.652C253.823 48.8867 253.636 49.196 253.636 49.58C253.636 49.9853 253.817 50.3 254.18 50.524C254.543 50.7373 255.012 50.844 255.588 50.844C256.047 50.844 256.399 50.7693 256.644 50.62C256.9 50.4707 257.076 50.268 257.172 50.012C257.279 49.756 257.332 49.452 257.332 49.1C257.332 48.812 257.321 48.4227 257.3 47.932C257.279 47.4413 257.252 46.908 257.22 46.332C257.188 45.7453 257.161 45.148 257.14 44.54C257.119 43.932 257.108 43.3613 257.108 42.828C257.108 42.284 257.108 41.772 257.108 41.292C257.108 40.812 257.108 40.4333 257.108 40.156C257.108 40.0173 257.103 39.8573 257.092 39.676C257.081 39.484 257.065 39.3187 257.044 39.18H258.484ZM250.58 39.276C250.548 39.3613 250.511 39.4733 250.468 39.612C250.436 39.74 250.404 39.8733 250.372 40.012C250.351 40.1507 250.329 40.268 250.308 40.364C250.244 40.6627 250.175 41.02 250.1 41.436C250.036 41.8413 249.967 42.284 249.892 42.764C249.817 43.2333 249.748 43.7133 249.684 44.204C249.631 44.684 249.588 45.148 249.556 45.596C249.524 46.044 249.508 46.4493 249.508 46.812C249.508 47.196 249.519 47.564 249.54 47.916C249.572 48.268 249.615 48.6413 249.668 49.036C249.753 48.7907 249.849 48.5293 249.956 48.252C250.063 47.9747 250.169 47.6973 250.276 47.42C250.393 47.1427 250.495 46.8973 250.58 46.684L251.236 47.196C251.108 47.5587 250.964 47.9693 250.804 48.428C250.655 48.876 250.511 49.308 250.372 49.724C250.244 50.1293 250.153 50.4653 250.1 50.732C250.079 50.8387 250.057 50.9613 250.036 51.1C250.025 51.2387 250.025 51.356 250.036 51.452C250.036 51.5267 250.036 51.6173 250.036 51.724C250.047 51.8307 250.057 51.9267 250.068 52.012L248.948 52.092C248.788 51.516 248.644 50.8013 248.516 49.948C248.399 49.084 248.34 48.1133 248.34 47.036C248.34 46.4387 248.367 45.82 248.42 45.18C248.484 44.5293 248.553 43.8947 248.628 43.276C248.713 42.6573 248.793 42.092 248.868 41.58C248.953 41.0573 249.023 40.6307 249.076 40.3C249.097 40.1187 249.119 39.9267 249.14 39.724C249.161 39.5213 249.172 39.3347 249.172 39.164L250.58 39.276ZM266.26 40.268C266.836 40.3427 267.481 40.396 268.196 40.428C268.921 40.46 269.684 40.476 270.484 40.476C270.996 40.476 271.508 40.4653 272.02 40.444C272.543 40.4227 273.039 40.396 273.508 40.364C273.988 40.3213 274.42 40.284 274.804 40.252V41.564C274.441 41.5853 274.02 41.612 273.54 41.644C273.06 41.676 272.553 41.7027 272.02 41.724C271.497 41.7453 270.985 41.756 270.484 41.756C269.684 41.756 268.937 41.74 268.244 41.708C267.551 41.6653 266.889 41.6227 266.26 41.58V40.268ZM266.9 46.716C266.793 47.036 266.708 47.3453 266.644 47.644C266.591 47.9427 266.564 48.2413 266.564 48.54C266.564 49.148 266.879 49.644 267.508 50.028C268.137 50.412 269.092 50.604 270.372 50.604C271.108 50.604 271.817 50.5773 272.5 50.524C273.183 50.4707 273.807 50.396 274.372 50.3C274.948 50.204 275.439 50.092 275.844 49.964L275.86 51.34C275.476 51.4467 275.001 51.5427 274.436 51.628C273.881 51.7133 273.263 51.7773 272.58 51.82C271.897 51.8733 271.172 51.9 270.404 51.9C269.327 51.9 268.404 51.7827 267.636 51.548C266.868 51.3133 266.281 50.9667 265.876 50.508C265.471 50.0493 265.268 49.484 265.268 48.812C265.268 48.396 265.305 48.0013 265.38 47.628C265.455 47.2547 265.529 46.908 265.604 46.588L266.9 46.716ZM285.268 38.972C285.204 39.1853 285.151 39.4093 285.108 39.644C285.065 39.8787 285.023 40.1027 284.98 40.316C284.927 40.572 284.863 40.892 284.788 41.276C284.724 41.6493 284.639 42.06 284.532 42.508C284.436 42.9453 284.335 43.388 284.228 43.836C284.121 44.284 284.009 44.7107 283.892 45.116C283.785 45.5107 283.673 45.8573 283.556 46.156C284.26 45.6653 284.975 45.3187 285.7 45.116C286.436 44.9027 287.225 44.796 288.068 44.796C288.921 44.796 289.647 44.9293 290.244 45.196C290.841 45.4627 291.3 45.836 291.62 46.316C291.94 46.7853 292.1 47.3347 292.1 47.964C292.1 48.796 291.897 49.5 291.492 50.076C291.087 50.652 290.516 51.1053 289.78 51.436C289.044 51.7667 288.169 51.9747 287.156 52.06C286.153 52.156 285.039 52.14 283.812 52.012L283.492 50.748C284.42 50.876 285.316 50.9293 286.18 50.908C287.055 50.876 287.833 50.7587 288.516 50.556C289.209 50.3427 289.759 50.028 290.164 49.612C290.58 49.196 290.788 48.6573 290.788 47.996C290.788 47.3987 290.543 46.8973 290.052 46.492C289.572 46.076 288.863 45.868 287.924 45.868C286.975 45.868 286.084 46.0333 285.252 46.364C284.42 46.684 283.737 47.164 283.204 47.804C283.108 47.9213 283.017 48.0387 282.932 48.156C282.857 48.2627 282.783 48.3907 282.708 48.54L281.508 48.108C281.817 47.5107 282.1 46.844 282.356 46.108C282.612 45.3613 282.836 44.6093 283.028 43.852C283.22 43.0947 283.38 42.4013 283.508 41.772C283.636 41.132 283.727 40.6147 283.78 40.22C283.812 39.964 283.833 39.7347 283.844 39.532C283.855 39.3293 283.855 39.116 283.844 38.892L285.268 38.972ZM280.292 41.004C280.719 41.0787 281.209 41.1427 281.764 41.196C282.329 41.2493 282.852 41.276 283.332 41.276C283.844 41.276 284.415 41.26 285.044 41.228C285.673 41.196 286.329 41.148 287.012 41.084C287.695 41.02 288.377 40.94 289.06 40.844C289.753 40.7373 290.415 40.6147 291.044 40.476L291.06 41.708C290.495 41.804 289.876 41.8947 289.204 41.98C288.543 42.0653 287.865 42.14 287.172 42.204C286.479 42.268 285.801 42.3213 285.14 42.364C284.489 42.396 283.892 42.412 283.348 42.412C282.804 42.412 282.276 42.396 281.764 42.364C281.263 42.332 280.777 42.2947 280.308 42.252L280.292 41.004ZM299.86 38.956C300.201 39.0627 300.644 39.18 301.188 39.308C301.743 39.436 302.324 39.564 302.932 39.692C303.551 39.8093 304.137 39.916 304.692 40.012C305.247 40.0973 305.7 40.156 306.052 40.188L305.748 41.42C305.449 41.3773 305.081 41.3187 304.644 41.244C304.217 41.1693 303.759 41.084 303.268 40.988C302.777 40.892 302.292 40.796 301.812 40.7C301.332 40.5933 300.895 40.4973 300.5 40.412C300.105 40.316 299.785 40.236 299.54 40.172L299.86 38.956ZM299.508 41.868C299.455 42.1453 299.396 42.4867 299.332 42.892C299.279 43.2867 299.22 43.7027 299.156 44.14C299.092 44.5773 299.033 44.9933 298.98 45.388C298.927 45.7827 298.879 46.108 298.836 46.364C299.615 45.692 300.436 45.2013 301.3 44.892C302.175 44.572 303.092 44.412 304.052 44.412C304.873 44.412 305.588 44.5613 306.196 44.86C306.804 45.148 307.279 45.548 307.62 46.06C307.961 46.5613 308.132 47.1267 308.132 47.756C308.132 48.4707 307.967 49.1213 307.636 49.708C307.316 50.284 306.809 50.7693 306.116 51.164C305.433 51.5587 304.559 51.836 303.492 51.996C302.425 52.1667 301.145 52.188 299.652 52.06L299.268 50.748C300.964 50.9507 302.367 50.9453 303.476 50.732C304.585 50.508 305.412 50.1347 305.956 49.612C306.511 49.0787 306.788 48.4493 306.788 47.724C306.788 47.2973 306.665 46.9187 306.42 46.588C306.175 46.2573 305.839 46.0013 305.412 45.82C304.996 45.628 304.516 45.532 303.972 45.532C302.927 45.532 301.977 45.724 301.124 46.108C300.281 46.4813 299.577 47.004 299.012 47.676C298.895 47.8147 298.799 47.9533 298.724 48.092C298.649 48.22 298.585 48.348 298.532 48.476L297.348 48.188C297.412 47.8893 297.476 47.532 297.54 47.116C297.604 46.6893 297.668 46.236 297.732 45.756C297.796 45.2653 297.855 44.7747 297.908 44.284C297.972 43.7933 298.025 43.324 298.068 42.876C298.111 42.4173 298.143 42.0227 298.164 41.692L299.508 41.868Z" fill="#51C5FF"/>
</svg>
