<svg width="225" height="225" viewBox="0 0 225 225" fill="none" xmlns="http://www.w3.org/2000/svg">
<circle cx="112.5" cy="112.5" r="111.5" fill="#51C5FF" stroke="white" stroke-width="2"/>
<path d="M86.512 80.504H95.232V81.608H86.512V80.504ZM88.064 76.568H94.672V77.672H88.064V76.568ZM90.336 73.56H91.504V88.264H90.336V73.56ZM89.888 81.016L90.848 81.32C90.528 82.152 90.1333 82.9573 89.664 83.736C89.1947 84.5147 88.6827 85.224 88.128 85.864C87.584 86.504 87.0133 87.0427 86.416 87.48C86.352 87.384 86.272 87.2773 86.176 87.16C86.08 87.0427 85.9787 86.9307 85.872 86.824C85.776 86.7173 85.6853 86.6267 85.6 86.552C86.176 86.1893 86.736 85.7147 87.28 85.128C87.824 84.5413 88.32 83.896 88.768 83.192C89.2267 82.4773 89.6 81.752 89.888 81.016ZM92.016 81.08C92.272 81.7627 92.592 82.4453 92.976 83.128C93.3707 83.8107 93.7973 84.44 94.256 85.016C94.7253 85.5813 95.1947 86.0507 95.664 86.424C95.5787 86.488 95.4773 86.5733 95.36 86.68C95.2533 86.7867 95.1467 86.8987 95.04 87.016C94.944 87.1333 94.864 87.2453 94.8 87.352C94.32 86.9147 93.8507 86.376 93.392 85.736C92.9333 85.096 92.5067 84.3973 92.112 83.64C91.728 82.8827 91.4027 82.1253 91.136 81.368L92.016 81.08ZM87.952 74.312L89.072 74.504C88.912 75.56 88.6827 76.5733 88.384 77.544C88.0853 78.5147 87.7227 79.3413 87.296 80.024C87.2213 79.9707 87.1253 79.9067 87.008 79.832C86.8907 79.7467 86.768 79.6667 86.64 79.592C86.5227 79.5173 86.4107 79.464 86.304 79.432C86.7413 78.792 87.088 78.024 87.344 77.128C87.6107 76.2213 87.8133 75.2827 87.952 74.312ZM80.864 76.648H86.4V77.768H80.864V76.648ZM83.184 73.56H84.352V88.264H83.184V73.56ZM83.152 77.368L83.872 77.624C83.744 78.2853 83.584 78.9627 83.392 79.656C83.2 80.3387 82.9867 81.016 82.752 81.688C82.5173 82.3493 82.2613 82.968 81.984 83.544C81.7173 84.12 81.44 84.6107 81.152 85.016C81.12 84.8987 81.0667 84.7707 80.992 84.632C80.9173 84.4827 80.8373 84.3387 80.752 84.2C80.6667 84.0613 80.5867 83.944 80.512 83.848C80.7893 83.496 81.056 83.0693 81.312 82.568C81.5787 82.0667 81.8293 81.5227 82.064 80.936C82.3093 80.3493 82.5227 79.752 82.704 79.144C82.8853 78.5253 83.0347 77.9333 83.152 77.368ZM84.288 78.232C84.384 78.3493 84.528 78.552 84.72 78.84C84.912 79.128 85.1147 79.448 85.328 79.8C85.552 80.1413 85.7547 80.4613 85.936 80.76C86.128 81.048 86.2613 81.256 86.336 81.384L85.616 82.248C85.52 82.0347 85.3867 81.768 85.216 81.448C85.056 81.1173 84.88 80.7707 84.688 80.408C84.496 80.0453 84.3093 79.7093 84.128 79.4C83.9573 79.0907 83.8187 78.8507 83.712 78.68L84.288 78.232ZM107.344 74.344L108.16 73.672C108.427 73.8533 108.709 74.0613 109.008 74.296C109.307 74.52 109.584 74.7493 109.84 74.984C110.107 75.208 110.32 75.416 110.48 75.608L109.648 76.36C109.488 76.168 109.28 75.9547 109.024 75.72C108.779 75.4747 108.507 75.2347 108.208 75C107.92 74.7547 107.632 74.536 107.344 74.344ZM96.88 76.552H111.152V77.72H96.88V76.552ZM97.44 80.104H104.512V81.272H97.44V80.104ZM100.32 80.728H101.52V86.44H100.32V80.728ZM96.944 86.616C97.584 86.488 98.336 86.3387 99.2 86.168C100.075 85.9867 101.003 85.7947 101.984 85.592C102.976 85.3787 103.963 85.1653 104.944 84.952L105.04 86.04C104.133 86.2533 103.216 86.4667 102.288 86.68C101.371 86.8933 100.485 87.096 99.632 87.288C98.7787 87.48 98.0107 87.6507 97.328 87.8L96.944 86.616ZM105.04 73.624H106.32C106.309 75.1067 106.352 76.52 106.448 77.864C106.555 79.208 106.704 80.44 106.896 81.56C107.099 82.68 107.339 83.6507 107.616 84.472C107.904 85.2933 108.219 85.9333 108.56 86.392C108.912 86.84 109.285 87.064 109.68 87.064C109.904 87.064 110.069 86.824 110.176 86.344C110.283 85.864 110.363 85.0907 110.416 84.024C110.544 84.152 110.709 84.28 110.912 84.408C111.115 84.536 111.301 84.632 111.472 84.696C111.408 85.624 111.307 86.3493 111.168 86.872C111.029 87.3947 110.832 87.7627 110.576 87.976C110.331 88.2 110 88.312 109.584 88.312C109.051 88.312 108.565 88.1307 108.128 87.768C107.701 87.4053 107.323 86.8933 106.992 86.232C106.661 85.56 106.373 84.776 106.128 83.88C105.883 82.9733 105.68 81.976 105.52 80.888C105.371 79.7893 105.253 78.6267 105.168 77.4C105.093 76.1733 105.051 74.9147 105.04 73.624ZM113.552 86.536C114.491 86.504 115.579 86.472 116.816 86.44C118.064 86.3973 119.387 86.3493 120.784 86.296C122.181 86.2427 123.573 86.184 124.96 86.12L124.928 87.224C123.584 87.288 122.229 87.352 120.864 87.416C119.499 87.48 118.203 87.5333 116.976 87.576C115.749 87.6293 114.661 87.6773 113.712 87.72L113.552 86.536ZM113.424 81.592H126.688V82.728H113.424V81.592ZM116.16 78.52H123.792V79.64H116.16V78.52ZM117.808 82.312L119.152 82.696C118.907 83.1973 118.64 83.7307 118.352 84.296C118.075 84.8507 117.792 85.3893 117.504 85.912C117.227 86.4347 116.955 86.8987 116.688 87.304L115.632 86.936C115.888 86.52 116.149 86.04 116.416 85.496C116.693 84.952 116.955 84.4027 117.2 83.848C117.445 83.2827 117.648 82.7707 117.808 82.312ZM121.6 84.008L122.624 83.448C123.125 83.864 123.616 84.3227 124.096 84.824C124.587 85.3253 125.035 85.8213 125.44 86.312C125.845 86.8027 126.171 87.2507 126.416 87.656L125.344 88.328C125.099 87.9227 124.773 87.4693 124.368 86.968C123.963 86.456 123.52 85.9387 123.04 85.416C122.571 84.8933 122.091 84.424 121.6 84.008ZM119.936 74.744C119.509 75.384 118.944 76.0453 118.24 76.728C117.547 77.4 116.773 78.04 115.92 78.648C115.077 79.256 114.203 79.7893 113.296 80.248C113.243 80.1413 113.173 80.0293 113.088 79.912C113.013 79.7947 112.928 79.6773 112.832 79.56C112.747 79.4427 112.661 79.3413 112.576 79.256C113.504 78.8187 114.395 78.2907 115.248 77.672C116.112 77.0427 116.891 76.376 117.584 75.672C118.288 74.9573 118.843 74.2587 119.248 73.576H120.496C120.923 74.1733 121.408 74.7493 121.952 75.304C122.496 75.848 123.077 76.36 123.696 76.84C124.315 77.32 124.944 77.752 125.584 78.136C126.235 78.5093 126.88 78.824 127.52 79.08C127.381 79.2293 127.243 79.4053 127.104 79.608C126.976 79.8 126.853 79.9813 126.736 80.152C125.915 79.7573 125.072 79.272 124.208 78.696C123.355 78.1093 122.555 77.4747 121.808 76.792C121.061 76.1093 120.437 75.4267 119.936 74.744ZM134.48 86.648H143.536V87.816H134.48V86.648ZM135.12 78.792H143.184V79.944H135.12V78.792ZM138.544 73.688H139.776V87.208H138.544V73.688ZM128.88 76.568H134.192V77.672H128.88V76.568ZM131.408 81.352L132.608 79.944V88.28H131.408V81.352ZM131.408 73.56H132.608V77.112H131.408V73.56ZM132.496 80.248C132.635 80.344 132.837 80.504 133.104 80.728C133.371 80.952 133.659 81.1973 133.968 81.464C134.277 81.72 134.56 81.96 134.816 82.184C135.072 82.408 135.253 82.5733 135.36 82.68L134.624 83.656C134.485 83.4853 134.293 83.272 134.048 83.016C133.803 82.76 133.536 82.4933 133.248 82.216C132.971 81.9387 132.704 81.6827 132.448 81.448C132.192 81.2027 131.979 81.0107 131.808 80.872L132.496 80.248ZM133.744 76.568H134L134.224 76.52L134.896 76.968C134.501 77.9493 133.984 78.888 133.344 79.784C132.704 80.6693 132 81.4747 131.232 82.2C130.475 82.9253 129.717 83.5387 128.96 84.04C128.917 83.9227 128.859 83.7947 128.784 83.656C128.709 83.5173 128.629 83.384 128.544 83.256C128.469 83.128 128.4 83.0267 128.336 82.952C129.061 82.5253 129.776 81.992 130.48 81.352C131.184 80.7013 131.824 79.9867 132.4 79.208C132.987 78.4187 133.435 77.6187 133.744 76.808V76.568ZM83.818 102.632C84.1113 102.661 84.412 102.683 84.72 102.698C85.0427 102.713 85.3213 102.72 85.556 102.72C85.864 102.72 86.238 102.713 86.678 102.698C87.118 102.683 87.5727 102.669 88.042 102.654C88.5113 102.625 88.9587 102.603 89.384 102.588C89.8093 102.559 90.1393 102.537 90.374 102.522C90.6087 102.493 90.836 102.456 91.056 102.412C91.276 102.368 91.474 102.317 91.65 102.258L93.036 103.358C92.904 103.49 92.7793 103.622 92.662 103.754C92.5593 103.886 92.464 104.025 92.376 104.172C92.1413 104.553 91.8553 105.096 91.518 105.8C91.1953 106.504 90.8507 107.267 90.484 108.088C90.132 108.909 89.7873 109.701 89.45 110.464C89.23 110.963 88.9953 111.498 88.746 112.07C88.4967 112.642 88.24 113.214 87.976 113.786C87.7267 114.358 87.4773 114.893 87.228 115.392C86.9933 115.876 86.7587 116.294 86.524 116.646C86.1133 117.247 85.6587 117.68 85.16 117.944C84.676 118.208 84.1113 118.34 83.466 118.34C82.586 118.34 81.8527 118.054 81.266 117.482C80.6793 116.895 80.386 116.096 80.386 115.084C80.386 114.233 80.5767 113.449 80.958 112.73C81.3393 111.997 81.8747 111.359 82.564 110.816C83.2533 110.259 84.0747 109.833 85.028 109.54C85.9813 109.232 87.03 109.078 88.174 109.078C89.4207 109.078 90.6307 109.225 91.804 109.518C92.9773 109.811 94.07 110.185 95.082 110.64C96.094 111.08 97.0107 111.549 97.832 112.048C98.668 112.547 99.3793 113.001 99.966 113.412L98.954 115.788C98.294 115.216 97.5533 114.651 96.732 114.094C95.9253 113.522 95.0453 113.009 94.092 112.554C93.1533 112.085 92.156 111.711 91.1 111.432C90.0587 111.153 88.9733 111.014 87.844 111.014C86.7 111.014 85.7173 111.205 84.896 111.586C84.0747 111.953 83.4513 112.422 83.026 112.994C82.6007 113.566 82.388 114.16 82.388 114.776C82.388 115.216 82.5053 115.546 82.74 115.766C82.9747 115.986 83.246 116.096 83.554 116.096C83.7887 116.096 84.0013 116.045 84.192 115.942C84.3827 115.825 84.5807 115.627 84.786 115.348C85.006 115.055 85.2187 114.703 85.424 114.292C85.644 113.881 85.864 113.441 86.084 112.972C86.304 112.488 86.5167 111.997 86.722 111.498C86.942 110.999 87.1473 110.53 87.338 110.09C87.6313 109.459 87.9173 108.814 88.196 108.154C88.4893 107.479 88.7753 106.834 89.054 106.218C89.3473 105.587 89.6113 105.03 89.846 104.546C89.626 104.546 89.3327 104.553 88.966 104.568C88.5993 104.583 88.2033 104.605 87.778 104.634C87.3527 104.649 86.9493 104.663 86.568 104.678C86.1867 104.693 85.8713 104.707 85.622 104.722C85.3873 104.737 85.1087 104.759 84.786 104.788C84.478 104.817 84.1847 104.854 83.906 104.898L83.818 102.632ZM97.898 107.626C97.81 109.181 97.6487 110.603 97.414 111.894C97.194 113.185 96.8347 114.351 96.336 115.392C95.852 116.433 95.1847 117.372 94.334 118.208C93.498 119.029 92.4347 119.77 91.144 120.43L89.296 118.912C90.616 118.355 91.6793 117.702 92.486 116.954C93.3073 116.191 93.9307 115.385 94.356 114.534C94.796 113.669 95.104 112.811 95.28 111.96C95.456 111.095 95.5733 110.295 95.632 109.562C95.6467 109.195 95.654 108.821 95.654 108.44C95.6687 108.044 95.654 107.692 95.61 107.384L97.898 107.626ZM108.348 101.554C108.847 101.701 109.485 101.862 110.262 102.038C111.039 102.214 111.853 102.39 112.704 102.566C113.555 102.727 114.361 102.874 115.124 103.006C115.887 103.123 116.51 103.204 116.994 103.248L116.488 105.382C116.048 105.323 115.527 105.243 114.926 105.14C114.325 105.023 113.679 104.898 112.99 104.766C112.301 104.634 111.619 104.502 110.944 104.37C110.284 104.238 109.683 104.106 109.14 103.974C108.597 103.842 108.15 103.732 107.798 103.644L108.348 101.554ZM108.15 105.734C108.077 106.071 107.996 106.497 107.908 107.01C107.835 107.523 107.754 108.059 107.666 108.616C107.593 109.173 107.519 109.709 107.446 110.222C107.373 110.721 107.314 111.139 107.27 111.476C108.297 110.64 109.382 110.024 110.526 109.628C111.685 109.232 112.887 109.034 114.134 109.034C115.337 109.034 116.371 109.254 117.236 109.694C118.101 110.119 118.769 110.699 119.238 111.432C119.722 112.151 119.964 112.95 119.964 113.83C119.964 114.813 119.744 115.722 119.304 116.558C118.864 117.379 118.167 118.076 117.214 118.648C116.261 119.205 115.021 119.601 113.496 119.836C111.985 120.071 110.159 120.1 108.018 119.924L107.358 117.658C109.617 117.937 111.501 117.944 113.012 117.68C114.537 117.416 115.681 116.947 116.444 116.272C117.207 115.583 117.588 114.754 117.588 113.786C117.588 113.243 117.427 112.767 117.104 112.356C116.796 111.931 116.371 111.601 115.828 111.366C115.285 111.117 114.662 110.992 113.958 110.992C112.609 110.992 111.369 111.241 110.24 111.74C109.125 112.224 108.201 112.906 107.468 113.786C107.277 114.006 107.123 114.211 107.006 114.402C106.903 114.578 106.808 114.761 106.72 114.952L104.696 114.468C104.784 114.057 104.872 113.566 104.96 112.994C105.063 112.407 105.158 111.784 105.246 111.124C105.334 110.449 105.415 109.775 105.488 109.1C105.561 108.411 105.627 107.751 105.686 107.12C105.745 106.475 105.789 105.91 105.818 105.426L108.15 105.734ZM128.258 103.49C128.214 103.695 128.177 103.945 128.148 104.238C128.119 104.531 128.089 104.825 128.06 105.118C128.045 105.411 128.038 105.661 128.038 105.866C128.038 106.321 128.038 106.827 128.038 107.384C128.053 107.941 128.067 108.513 128.082 109.1C128.097 109.672 128.133 110.244 128.192 110.816C128.309 111.975 128.485 112.987 128.72 113.852C128.955 114.717 129.255 115.392 129.622 115.876C129.989 116.36 130.414 116.602 130.898 116.602C131.177 116.602 131.441 116.47 131.69 116.206C131.939 115.942 132.174 115.59 132.394 115.15C132.614 114.71 132.812 114.233 132.988 113.72C133.179 113.192 133.34 112.686 133.472 112.202L135.21 114.248C134.741 115.495 134.271 116.492 133.802 117.24C133.347 117.973 132.878 118.501 132.394 118.824C131.91 119.147 131.397 119.308 130.854 119.308C130.121 119.308 129.417 119.059 128.742 118.56C128.082 118.047 127.51 117.211 127.026 116.052C126.542 114.893 126.197 113.346 125.992 111.41C125.919 110.765 125.86 110.068 125.816 109.32C125.787 108.572 125.765 107.861 125.75 107.186C125.75 106.511 125.75 105.954 125.75 105.514C125.75 105.235 125.735 104.898 125.706 104.502C125.691 104.091 125.647 103.739 125.574 103.446L128.258 103.49ZM139.522 104.04C139.918 104.553 140.299 105.155 140.666 105.844C141.047 106.519 141.392 107.252 141.7 108.044C142.008 108.836 142.279 109.643 142.514 110.464C142.763 111.285 142.969 112.099 143.13 112.906C143.291 113.713 143.401 114.475 143.46 115.194L141.194 116.074C141.106 115.121 140.959 114.123 140.754 113.082C140.549 112.041 140.285 111.014 139.962 110.002C139.639 108.975 139.258 108.015 138.818 107.12C138.393 106.211 137.901 105.426 137.344 104.766L139.522 104.04ZM101.024 135.936H111.376V136.912H101.024V135.936ZM101.952 140.256H110.32V141.184H101.952V140.256ZM101.248 142.448H111.024V143.44H101.248V142.448ZM105.44 132.688H106.608V145.136H105.44V132.688ZM102.176 133.84H110.16V139.072H102.064V138.096H108.992V134.8H102.176V133.84ZM96.656 133.568H100.128V134.656H96.656V133.568ZM99.696 133.568H99.856L100.048 133.52L100.864 133.76C100.629 134.325 100.347 134.96 100.016 135.664C99.6853 136.368 99.344 137.083 98.992 137.808C98.64 138.523 98.2987 139.2 97.968 139.84L96.864 139.536C97.12 139.056 97.3813 138.555 97.648 138.032C97.9147 137.499 98.176 136.965 98.432 136.432C98.688 135.899 98.9227 135.397 99.136 134.928C99.36 134.459 99.5467 134.059 99.696 133.728V133.568ZM98.128 138.128H100.736V139.216H97.968L98.128 138.128ZM100.256 138.128H100.496L100.704 138.112L101.408 138.272C101.173 140.608 100.715 142.512 100.032 143.984C99.3493 145.445 98.4853 146.555 97.44 147.312C97.3867 147.227 97.3013 147.131 97.184 147.024C97.0773 146.917 96.9653 146.811 96.848 146.704C96.7413 146.608 96.64 146.533 96.544 146.48C97.568 145.797 98.3893 144.795 99.008 143.472C99.6373 142.139 100.053 140.443 100.256 138.384V138.128ZM98.176 140.496C98.496 141.595 98.9173 142.491 99.44 143.184C99.9733 143.867 100.592 144.389 101.296 144.752C102.011 145.115 102.8 145.365 103.664 145.504C104.539 145.643 105.483 145.712 106.496 145.712C106.635 145.712 106.864 145.712 107.184 145.712C107.504 145.712 107.872 145.712 108.288 145.712C108.704 145.712 109.125 145.712 109.552 145.712C109.979 145.701 110.363 145.696 110.704 145.696C111.045 145.685 111.301 145.68 111.472 145.68C111.408 145.765 111.344 145.877 111.28 146.016C111.216 146.165 111.157 146.309 111.104 146.448C111.051 146.597 111.013 146.731 110.992 146.848H110.144H106.48C105.317 146.848 104.251 146.768 103.28 146.608C102.32 146.448 101.456 146.155 100.688 145.728C99.92 145.301 99.2427 144.699 98.656 143.92C98.08 143.131 97.6 142.107 97.216 140.848L98.176 140.496ZM119.952 133.072H121.088V135.024C121.088 135.472 121.035 135.952 120.928 136.464C120.821 136.976 120.624 137.472 120.336 137.952C120.048 138.432 119.616 138.864 119.04 139.248C118.987 139.163 118.901 139.072 118.784 138.976C118.677 138.869 118.565 138.768 118.448 138.672C118.341 138.565 118.245 138.491 118.16 138.448C118.672 138.107 119.056 137.744 119.312 137.36C119.568 136.965 119.739 136.565 119.824 136.16C119.909 135.755 119.952 135.365 119.952 134.992V133.072ZM123.84 133.072H124.992V136.992C124.992 137.173 125.008 137.291 125.04 137.344C125.083 137.387 125.168 137.408 125.296 137.408C125.339 137.408 125.413 137.408 125.52 137.408C125.627 137.408 125.739 137.408 125.856 137.408C125.973 137.408 126.059 137.408 126.112 137.408C126.197 137.408 126.261 137.371 126.304 137.296C126.357 137.221 126.395 137.061 126.416 136.816C126.448 136.56 126.464 136.176 126.464 135.664C126.581 135.76 126.741 135.845 126.944 135.92C127.147 135.995 127.328 136.053 127.488 136.096C127.456 136.725 127.392 137.211 127.296 137.552C127.211 137.893 127.083 138.133 126.912 138.272C126.752 138.4 126.528 138.464 126.24 138.464C126.165 138.464 126.053 138.464 125.904 138.464C125.755 138.464 125.6 138.464 125.44 138.464C125.291 138.464 125.184 138.464 125.12 138.464C124.789 138.464 124.528 138.421 124.336 138.336C124.155 138.251 124.027 138.107 123.952 137.904C123.877 137.691 123.84 137.392 123.84 137.008V133.072ZM120.816 140.608C121.36 141.995 122.208 143.179 123.36 144.16C124.523 145.141 125.909 145.835 127.52 146.24C127.435 146.315 127.339 146.416 127.232 146.544C127.136 146.672 127.04 146.8 126.944 146.928C126.859 147.056 126.784 147.168 126.72 147.264C125.067 146.784 123.648 146.005 122.464 144.928C121.291 143.84 120.384 142.517 119.744 140.96L120.816 140.608ZM125.296 139.488H125.52L125.728 139.44L126.512 139.744C126.235 140.8 125.84 141.739 125.328 142.56C124.827 143.371 124.24 144.085 123.568 144.704C122.896 145.323 122.16 145.84 121.36 146.256C120.571 146.683 119.733 147.024 118.848 147.28C118.816 147.173 118.763 147.051 118.688 146.912C118.613 146.784 118.533 146.656 118.448 146.528C118.363 146.4 118.277 146.299 118.192 146.224C119.003 146.011 119.781 145.717 120.528 145.344C121.275 144.971 121.963 144.517 122.592 143.984C123.232 143.44 123.781 142.811 124.24 142.096C124.699 141.381 125.051 140.581 125.296 139.696V139.488ZM118.912 139.488H125.76V140.592H118.912V139.488ZM120.432 133.072H124.432V134.144H120.432V133.072ZM113.376 137.408H118.144V138.352H113.376V137.408ZM113.44 133.12H118.112V134.08H113.44V133.12ZM113.376 139.536H118.144V140.496H113.376V139.536ZM112.608 135.216H118.704V136.224H112.608V135.216ZM113.936 141.696H118.128V146.368H113.936V145.376H117.072V142.704H113.936V141.696ZM113.344 141.696H114.4V147.104H113.344V141.696Z" fill="black"/>
</svg>
