<svg width="140" height="140" viewBox="0 0 140 140" fill="none" xmlns="http://www.w3.org/2000/svg">
<circle cx="70" cy="70" r="70" fill="#51C5FF"/>
<path d="M46.56 106.8H53.264V107.904H46.56V106.8ZM48.864 108.512H49.904V116.576H48.864V108.512ZM46.96 104.544L48.128 104.784C47.8613 105.904 47.504 106.965 47.056 107.968C46.608 108.96 46.0907 109.803 45.504 110.496C45.4507 110.421 45.3653 110.336 45.248 110.24C45.1307 110.133 45.0133 110.027 44.896 109.92C44.7787 109.813 44.672 109.733 44.576 109.68C45.1307 109.061 45.6107 108.299 46.016 107.392C46.4213 106.485 46.736 105.536 46.96 104.544ZM44.848 112.944L51.872 109.632L52.304 110.624L45.28 113.92L44.848 112.944ZM46.256 109.76H47.344V117.424C47.344 117.733 47.4027 117.936 47.52 118.032C47.648 118.128 47.9307 118.176 48.368 118.176C48.4747 118.176 48.6667 118.176 48.944 118.176C49.232 118.176 49.5467 118.176 49.888 118.176C50.2293 118.176 50.5493 118.176 50.848 118.176C51.1467 118.176 51.3653 118.176 51.504 118.176C51.7387 118.176 51.9147 118.128 52.032 118.032C52.1493 117.936 52.2347 117.755 52.288 117.488C52.3413 117.221 52.3787 116.832 52.4 116.32C52.528 116.416 52.688 116.507 52.88 116.592C53.0827 116.667 53.264 116.72 53.424 116.752C53.3813 117.381 53.296 117.872 53.168 118.224C53.0507 118.587 52.8693 118.843 52.624 118.992C52.3787 119.141 52.0267 119.216 51.568 119.216C51.4933 119.216 51.344 119.216 51.12 119.216C50.896 119.216 50.64 119.216 50.352 119.216C50.064 119.216 49.776 119.216 49.488 119.216C49.2 119.216 48.944 119.216 48.72 119.216C48.5067 119.216 48.368 119.216 48.304 119.216C47.7707 119.216 47.3547 119.163 47.056 119.056C46.7573 118.96 46.5493 118.779 46.432 118.512C46.3147 118.256 46.256 117.888 46.256 117.408V109.76ZM51.6 109.904H51.456L51.728 109.664L51.936 109.504L52.704 109.808L52.64 109.984C52.64 110.56 52.6347 111.109 52.624 111.632C52.624 112.155 52.6187 112.635 52.608 113.072C52.608 113.499 52.6027 113.861 52.592 114.16C52.5813 114.448 52.5653 114.645 52.544 114.752C52.5227 115.008 52.448 115.205 52.32 115.344C52.192 115.483 52.0267 115.579 51.824 115.632C51.6533 115.675 51.4507 115.707 51.216 115.728C50.992 115.739 50.7893 115.739 50.608 115.728C50.5973 115.579 50.5707 115.419 50.528 115.248C50.4853 115.067 50.432 114.912 50.368 114.784C50.5173 114.795 50.672 114.8 50.832 114.8C51.0027 114.8 51.1253 114.8 51.2 114.8C51.2853 114.8 51.3547 114.784 51.408 114.752C51.472 114.72 51.5147 114.64 51.536 114.512C51.5467 114.437 51.5573 114.272 51.568 114.016C51.5787 113.749 51.584 113.413 51.584 113.008C51.584 112.592 51.584 112.123 51.584 111.6C51.5947 111.067 51.6 110.501 51.6 109.904ZM38.704 107.168H45.472V108.304H38.704V107.168ZM41.008 110.496H43.824V111.616H41.008V110.496ZM41.52 104.592H42.672V107.568H41.52V104.592ZM40.448 107.808H41.6C41.5787 108.928 41.5413 110.032 41.488 111.12C41.4347 112.208 41.3387 113.253 41.2 114.256C41.0613 115.259 40.848 116.187 40.56 117.04C40.2827 117.893 39.9093 118.64 39.44 119.28C39.3333 119.141 39.1893 118.992 39.008 118.832C38.8373 118.683 38.6773 118.565 38.528 118.48C38.9547 117.904 39.2907 117.221 39.536 116.432C39.792 115.632 39.984 114.768 40.112 113.84C40.24 112.901 40.3253 111.92 40.368 110.896C40.4107 109.872 40.4373 108.843 40.448 107.808ZM43.424 110.496H44.528C44.528 110.496 44.528 110.533 44.528 110.608C44.528 110.672 44.528 110.747 44.528 110.832C44.528 110.917 44.528 110.987 44.528 111.04C44.496 112.384 44.464 113.515 44.432 114.432C44.4107 115.349 44.3733 116.101 44.32 116.688C44.2773 117.275 44.224 117.728 44.16 118.048C44.096 118.368 44.0107 118.597 43.904 118.736C43.776 118.907 43.6427 119.024 43.504 119.088C43.3653 119.163 43.184 119.216 42.96 119.248C42.7787 119.269 42.5333 119.28 42.224 119.28C41.9147 119.28 41.5947 119.269 41.264 119.248C41.2533 119.088 41.2213 118.901 41.168 118.688C41.1147 118.485 41.0453 118.315 40.96 118.176C41.28 118.197 41.5787 118.208 41.856 118.208C42.1333 118.219 42.3307 118.224 42.448 118.224C42.5547 118.235 42.6453 118.224 42.72 118.192C42.8053 118.171 42.88 118.112 42.944 118.016C43.0293 117.888 43.104 117.584 43.168 117.104C43.232 116.613 43.28 115.856 43.312 114.832C43.3547 113.808 43.392 112.443 43.424 110.736V110.496ZM55.664 106.368H68.4V107.6H55.664V106.368ZM54.832 116.848H69.216V118.048H54.832V116.848ZM61.296 106.992H62.624V117.344H61.296V106.992ZM77.344 104.56H78.56V117.936C78.56 118.299 78.5013 118.565 78.384 118.736C78.2773 118.917 78.096 119.051 77.84 119.136C77.5947 119.221 77.2533 119.275 76.816 119.296C76.3893 119.317 75.84 119.328 75.168 119.328C75.136 119.179 75.0773 119.003 74.992 118.8C74.9067 118.608 74.8213 118.448 74.736 118.32C75.056 118.331 75.3653 118.336 75.664 118.336C75.9733 118.336 76.24 118.331 76.464 118.32C76.6987 118.32 76.8587 118.32 76.944 118.32C77.0933 118.309 77.1947 118.277 77.248 118.224C77.312 118.171 77.344 118.075 77.344 117.936V104.56ZM71.072 105.84H84.96V106.832H71.072V105.84ZM73.904 108.624V109.76H82.144V108.624H73.904ZM72.752 107.776H83.36V110.608H72.752V107.776ZM72.288 111.744H83.616V117.552H82.4V112.624H72.288V111.744ZM70.768 113.744H85.28V114.704H70.768V113.744ZM72.144 115.904H83.024V116.848H72.144V115.904ZM90.896 105.376H96.72V106.448H90.896V105.376ZM92.464 108.72H95.536V109.792H92.128L92.464 108.72ZM91.536 112.352L92.048 111.456C92.3573 111.648 92.6613 111.861 92.96 112.096C93.2693 112.331 93.5573 112.56 93.824 112.784C94.1013 113.008 94.32 113.211 94.48 113.392L93.968 114.432C93.7973 114.229 93.5787 114.005 93.312 113.76C93.0453 113.515 92.7573 113.269 92.448 113.024C92.1387 112.779 91.8347 112.555 91.536 112.352ZM96.8 106.368H97.888V115.616H96.8V106.368ZM99.728 104.816H100.848V117.76C100.848 118.144 100.8 118.432 100.704 118.624C100.608 118.816 100.443 118.96 100.208 119.056C99.9733 119.152 99.648 119.216 99.232 119.248C98.8267 119.28 98.3093 119.296 97.68 119.296C97.648 119.136 97.5947 118.939 97.52 118.704C97.4453 118.48 97.3653 118.283 97.28 118.112C97.7707 118.123 98.208 118.128 98.592 118.128C98.976 118.139 99.2373 118.139 99.376 118.128C99.504 118.117 99.5947 118.085 99.648 118.032C99.7013 117.989 99.728 117.904 99.728 117.776V104.816ZM92.464 105.744L93.616 105.92C93.5093 106.613 93.376 107.333 93.216 108.08C93.056 108.816 92.8587 109.547 92.624 110.272C92.3893 110.997 92.1067 111.685 91.776 112.336C91.456 112.987 91.0773 113.568 90.64 114.08C90.5867 114.005 90.5173 113.915 90.432 113.808C90.3467 113.701 90.256 113.6 90.16 113.504C90.064 113.408 89.9787 113.328 89.904 113.264C90.2987 112.795 90.64 112.261 90.928 111.664C91.216 111.056 91.456 110.416 91.648 109.744C91.8507 109.061 92.016 108.379 92.144 107.696C92.272 107.013 92.3787 106.363 92.464 105.744ZM95.072 108.72H95.296L95.488 108.672L96.192 108.912C95.8827 111.515 95.3013 113.68 94.448 115.408C93.6053 117.125 92.5707 118.427 91.344 119.312C91.2907 119.216 91.216 119.109 91.12 118.992C91.024 118.875 90.9227 118.763 90.816 118.656C90.72 118.549 90.6293 118.464 90.544 118.4C91.728 117.589 92.7093 116.4 93.488 114.832C94.2773 113.264 94.8053 111.312 95.072 108.976V108.72ZM89.728 104.624L90.832 104.944C90.5333 105.851 90.176 106.757 89.76 107.664C89.3547 108.571 88.912 109.424 88.432 110.224C87.952 111.024 87.4507 111.728 86.928 112.336C86.896 112.251 86.8373 112.133 86.752 111.984C86.6773 111.824 86.5973 111.664 86.512 111.504C86.4267 111.344 86.352 111.216 86.288 111.12C86.7573 110.587 87.2053 109.973 87.632 109.28C88.0587 108.576 88.448 107.829 88.8 107.04C89.1627 106.24 89.472 105.435 89.728 104.624ZM88.432 108.56L89.52 107.488L89.552 107.52V119.28H88.432V108.56Z" fill="white"/>
<rect x="40" y="28" width="60" height="60" fill="#D9D9D9"/>
<path d="M97.7386 51.2999L94.2488 47.8413C94.1711 47.7643 94.0792 47.7083 93.9803 47.6593C93.9662 47.6593 93.9521 47.6453 93.9379 47.6383C93.8461 47.6033 93.7472 47.5823 93.6483 47.5823C93.6271 47.5823 93.6059 47.5823 93.5918 47.5823C93.5706 47.5823 93.5423 47.5823 93.5211 47.5823L91.2322 47.8343L89.6922 46.3081L90.3563 44.7678C90.5046 44.4317 90.4269 44.0397 90.1655 43.7806L81.8365 35.5263C75.7469 29.4912 65.8426 29.4912 59.753 35.5263C59.3998 35.8763 59.3998 36.4434 59.753 36.7935L61.5474 38.5718C61.8441 38.8658 62.3103 38.9218 62.6706 38.6978C65.2774 37.0735 68.6118 37.4446 70.7877 39.6009C72.462 41.2602 73.0978 43.6896 72.4549 45.958C72.3631 46.273 72.4549 46.6021 72.688 46.8331L73.9314 48.0653L64.9312 56.9848L61.3072 57.783C61.3072 57.783 61.2436 57.804 61.2083 57.818C61.18 57.825 61.1588 57.832 61.1306 57.846C61.0317 57.888 60.9469 57.944 60.8692 58.021C60.8692 58.021 60.8692 58.021 60.8621 58.021L42.763 75.937C42.2684 76.4271 42 77.0782 42 77.7713C42 78.4644 42.2755 79.1155 42.763 79.6056L47.4467 84.2474C47.9553 84.7515 48.6265 85.0035 49.2976 85.0035C49.9687 85.0035 50.6328 84.7515 51.1485 84.2474L69.2264 66.3314C69.2264 66.3314 69.2264 66.3314 69.2264 66.3244C69.2971 66.2474 69.3536 66.1634 69.4031 66.0653C69.4172 66.0373 69.4242 66.0163 69.4313 65.9883C69.4454 65.9533 69.4596 65.9253 69.4666 65.8903L70.272 62.2987L79.2721 53.3792L79.8726 53.9743C80.134 54.2334 80.5296 54.3104 80.8687 54.1634L82.4229 53.5053L83.97 55.0315L83.7157 57.2999C83.6874 57.5729 83.7792 57.839 83.977 58.035L87.4669 61.4936C87.6435 61.6686 87.8766 61.7596 88.1098 61.7596C88.3429 61.7596 88.576 61.6756 88.7526 61.4936L97.7527 52.5741C98.106 52.224 98.106 51.6569 97.7527 51.3069L97.7386 51.2999ZM65.0796 58.7841L68.4564 62.1307L68.0608 63.902L63.2923 59.1762L65.0796 58.7841ZM49.8698 82.9802C49.559 83.2882 49.0433 83.2882 48.7324 82.9802L44.0487 78.3384C43.8933 78.1914 43.8156 77.9883 43.8156 77.7783C43.8156 77.5683 43.9003 77.3652 44.0487 77.2112L61.4909 59.9253L67.312 65.6943L49.8698 82.9802ZM69.4454 60.5764L67.0435 58.196L66.6408 57.797L75.1888 49.3256L77.9864 52.098L69.4384 60.5694L69.4454 60.5764ZM88.0956 59.5893L85.5524 57.0688L85.8067 54.8005C85.835 54.5274 85.7432 54.2614 85.5454 54.0653L83.2635 51.804C83.0021 51.5449 82.6065 51.4679 82.2674 51.6149L80.7133 52.273L79.9079 51.4749L79.4417 51.0128L74.3058 45.923C74.8921 43.1855 74.0515 40.3221 72.0452 38.3337C69.4384 35.7503 65.5317 35.1762 62.3174 36.8215L61.6745 36.1844C67.093 31.4726 75.3725 31.6756 80.5437 36.8005L88.4347 44.6208L87.7707 46.161C87.6223 46.4971 87.7 46.8891 87.9614 47.1482L90.2432 49.4096C90.441 49.6056 90.7095 49.6966 90.985 49.6686L91.1404 49.6546L87.8908 52.8751C87.5375 53.2252 87.5375 53.7923 87.8908 54.1424C88.0674 54.3174 88.3005 54.4084 88.5336 54.4084C88.7668 54.4084 88.9999 54.3244 89.1765 54.1424L93.6059 49.7526L95.8171 51.944L88.0956 59.5963V59.5893Z" fill="#747474"/>
</svg>
