<svg width="140" height="140" viewBox="0 0 140 140" fill="none" xmlns="http://www.w3.org/2000/svg">
<circle cx="70" cy="70" r="70" fill="#51C5FF"/>
<path d="M39.552 117.536C40.4907 117.504 41.5787 117.472 42.816 117.44C44.064 117.397 45.3867 117.349 46.784 117.296C48.1813 117.243 49.5733 117.184 50.96 117.12L50.928 118.224C49.584 118.288 48.2293 118.352 46.864 118.416C45.4987 118.48 44.2027 118.533 42.976 118.576C41.7493 118.629 40.6613 118.677 39.712 118.72L39.552 117.536ZM39.424 112.592H52.688V113.728H39.424V112.592ZM42.16 109.52H49.792V110.64H42.16V109.52ZM43.808 113.312L45.152 113.696C44.9067 114.197 44.64 114.731 44.352 115.296C44.0747 115.851 43.792 116.389 43.504 116.912C43.2267 117.435 42.9547 117.899 42.688 118.304L41.632 117.936C41.888 117.52 42.1493 117.04 42.416 116.496C42.6933 115.952 42.9547 115.403 43.2 114.848C43.4453 114.283 43.648 113.771 43.808 113.312ZM47.6 115.008L48.624 114.448C49.1253 114.864 49.616 115.323 50.096 115.824C50.5867 116.325 51.0347 116.821 51.44 117.312C51.8453 117.803 52.1707 118.251 52.416 118.656L51.344 119.328C51.0987 118.923 50.7733 118.469 50.368 117.968C49.9627 117.456 49.52 116.939 49.04 116.416C48.5707 115.893 48.0907 115.424 47.6 115.008ZM45.936 105.744C45.5093 106.384 44.944 107.045 44.24 107.728C43.5467 108.4 42.7733 109.04 41.92 109.648C41.0773 110.256 40.2027 110.789 39.296 111.248C39.2427 111.141 39.1733 111.029 39.088 110.912C39.0133 110.795 38.928 110.677 38.832 110.56C38.7467 110.443 38.6613 110.341 38.576 110.256C39.504 109.819 40.3947 109.291 41.248 108.672C42.112 108.043 42.8907 107.376 43.584 106.672C44.288 105.957 44.8427 105.259 45.248 104.576H46.496C46.9227 105.173 47.408 105.749 47.952 106.304C48.496 106.848 49.0773 107.36 49.696 107.84C50.3147 108.32 50.944 108.752 51.584 109.136C52.2347 109.509 52.88 109.824 53.52 110.08C53.3813 110.229 53.2427 110.405 53.104 110.608C52.976 110.8 52.8533 110.981 52.736 111.152C51.9147 110.757 51.072 110.272 50.208 109.696C49.3547 109.109 48.5547 108.475 47.808 107.792C47.0613 107.109 46.4373 106.427 45.936 105.744ZM60.48 117.648H69.536V118.816H60.48V117.648ZM61.12 109.792H69.184V110.944H61.12V109.792ZM64.544 104.688H65.776V118.208H64.544V104.688ZM54.88 107.568H60.192V108.672H54.88V107.568ZM57.408 112.352L58.608 110.944V119.28H57.408V112.352ZM57.408 104.56H58.608V108.112H57.408V104.56ZM58.496 111.248C58.6347 111.344 58.8373 111.504 59.104 111.728C59.3707 111.952 59.6587 112.197 59.968 112.464C60.2773 112.72 60.56 112.96 60.816 113.184C61.072 113.408 61.2533 113.573 61.36 113.68L60.624 114.656C60.4853 114.485 60.2933 114.272 60.048 114.016C59.8027 113.76 59.536 113.493 59.248 113.216C58.9707 112.939 58.704 112.683 58.448 112.448C58.192 112.203 57.9787 112.011 57.808 111.872L58.496 111.248ZM59.744 107.568H60L60.224 107.52L60.896 107.968C60.5013 108.949 59.984 109.888 59.344 110.784C58.704 111.669 58 112.475 57.232 113.2C56.4747 113.925 55.7173 114.539 54.96 115.04C54.9173 114.923 54.8587 114.795 54.784 114.656C54.7093 114.517 54.6293 114.384 54.544 114.256C54.4693 114.128 54.4 114.027 54.336 113.952C55.0613 113.525 55.776 112.992 56.48 112.352C57.184 111.701 57.824 110.987 58.4 110.208C58.9867 109.419 59.4347 108.619 59.744 107.808V107.568ZM80.048 105.44H85.184V106.496H80.048V105.44ZM79.904 111.28H85.36V112.336H79.904V111.28ZM80.688 105.776H81.648V111.824H80.688V105.776ZM76.176 108.304H79.168V109.264H76.176V108.304ZM77.936 113.488L78.864 113.152C79.0667 113.547 79.2693 113.968 79.472 114.416C79.6747 114.864 79.8507 115.296 80 115.712C80.16 116.128 80.2773 116.496 80.352 116.816L79.36 117.232C79.2853 116.901 79.1733 116.523 79.024 116.096C78.8747 115.669 78.704 115.227 78.512 114.768C78.32 114.309 78.128 113.883 77.936 113.488ZM76.192 105.456H79.648V112.224H76.192V111.216H78.656V106.464H76.192V105.456ZM74.656 116.64C75.2533 116.469 75.9627 116.251 76.784 115.984C77.6053 115.717 78.4427 115.44 79.296 115.152L79.472 116.096C78.7147 116.395 77.9627 116.683 77.216 116.96C76.4693 117.237 75.7813 117.493 75.152 117.728L74.656 116.64ZM75.76 105.456H76.768V116.56L75.76 116.8V105.456ZM70.784 107.952H75.376V109.072H70.784V107.952ZM72.8 104.56H73.92V119.264H72.8V104.56ZM72.752 108.64L73.536 108.88C73.4293 109.509 73.2907 110.171 73.12 110.864C72.9493 111.557 72.7573 112.24 72.544 112.912C72.3307 113.573 72.096 114.197 71.84 114.784C71.5947 115.36 71.3387 115.856 71.072 116.272C71.008 116.112 70.912 115.936 70.784 115.744C70.656 115.541 70.544 115.376 70.448 115.248C70.6933 114.875 70.9333 114.432 71.168 113.92C71.4027 113.397 71.6213 112.837 71.824 112.24C72.0373 111.643 72.2187 111.04 72.368 110.432C72.528 109.813 72.656 109.216 72.752 108.64ZM73.872 110.368C73.9573 110.443 74.0853 110.571 74.256 110.752C74.4267 110.933 74.6133 111.136 74.816 111.36C75.0293 111.573 75.216 111.776 75.376 111.968C75.5467 112.149 75.664 112.277 75.728 112.352L75.072 113.376C74.9867 113.227 74.864 113.04 74.704 112.816C74.5547 112.592 74.3893 112.357 74.208 112.112C74.0267 111.867 73.856 111.643 73.696 111.44C73.536 111.227 73.408 111.056 73.312 110.928L73.872 110.368ZM82.976 106.016H84V108.048C84 108.699 83.968 109.397 83.904 110.144C83.8507 110.88 83.7333 111.643 83.552 112.432C83.3707 113.221 83.0933 114.016 82.72 114.816C82.3573 115.605 81.8667 116.379 81.248 117.136C80.64 117.893 79.872 118.608 78.944 119.28C78.8907 119.205 78.816 119.12 78.72 119.024C78.624 118.928 78.5227 118.837 78.416 118.752C78.32 118.667 78.2293 118.592 78.144 118.528C79.04 117.899 79.7813 117.232 80.368 116.528C80.9653 115.813 81.44 115.083 81.792 114.336C82.144 113.589 82.4 112.848 82.56 112.112C82.7307 111.376 82.8427 110.667 82.896 109.984C82.9493 109.291 82.976 108.645 82.976 108.048V106.016ZM82.48 112.656H83.472V117.808C83.472 117.861 83.4773 117.915 83.488 117.968C83.5093 118.011 83.5307 118.043 83.552 118.064C83.616 118.117 83.7067 118.144 83.824 118.144C83.8773 118.144 83.936 118.144 84 118.144C84.0747 118.144 84.144 118.144 84.208 118.144C84.272 118.144 84.3307 118.139 84.384 118.128C84.448 118.117 84.496 118.096 84.528 118.064C84.56 118.043 84.592 118 84.624 117.936C84.656 117.861 84.6773 117.776 84.688 117.68C84.7093 117.541 84.72 117.312 84.72 116.992C84.7307 116.672 84.736 116.315 84.736 115.92C84.832 116.005 84.96 116.091 85.12 116.176C85.28 116.261 85.424 116.325 85.552 116.368C85.552 116.763 85.536 117.157 85.504 117.552C85.4827 117.936 85.456 118.203 85.424 118.352C85.3493 118.651 85.2053 118.869 84.992 119.008C84.8107 119.115 84.576 119.168 84.288 119.168C84.192 119.168 84.0693 119.168 83.92 119.168C83.7707 119.168 83.6587 119.168 83.584 119.168C83.4347 119.168 83.2853 119.152 83.136 119.12C82.9867 119.088 82.8587 119.024 82.752 118.928C82.6453 118.821 82.5707 118.688 82.528 118.528C82.496 118.368 82.48 118.112 82.48 117.76V112.656ZM86.736 113.296H101.28V114.304H86.736V113.296ZM87.104 105.248H100.88V106.32H87.104V105.248ZM92.272 111.632L93.456 111.936C93.104 112.491 92.72 113.077 92.304 113.696C91.888 114.315 91.472 114.917 91.056 115.504C90.64 116.08 90.256 116.587 89.904 117.024L88.768 116.624C89.12 116.187 89.504 115.68 89.92 115.104C90.336 114.528 90.752 113.936 91.168 113.328C91.584 112.72 91.952 112.155 92.272 111.632ZM97.072 113.664L98.224 114C97.8827 114.875 97.4027 115.621 96.784 116.24C96.176 116.859 95.4293 117.371 94.544 117.776C93.6587 118.181 92.624 118.501 91.44 118.736C90.256 118.981 88.9173 119.157 87.424 119.264C87.392 119.093 87.328 118.907 87.232 118.704C87.1467 118.512 87.0507 118.347 86.944 118.208C88.8533 118.101 90.48 117.893 91.824 117.584C93.1787 117.264 94.2827 116.789 95.136 116.16C96 115.531 96.6453 114.699 97.072 113.664ZM89.648 116.48L90.24 115.6C91.5627 115.824 92.8747 116.091 94.176 116.4C95.4773 116.699 96.6987 117.019 97.84 117.36C98.992 117.691 99.9787 118.016 100.8 118.336L100.064 119.312C99.2533 118.981 98.2933 118.645 97.184 118.304C96.0853 117.963 94.8907 117.637 93.6 117.328C92.32 117.008 91.0027 116.725 89.648 116.48ZM91.472 105.648H92.608V111.248H91.472V105.648ZM95.216 105.648H96.352V111.248H95.216V105.648ZM89.04 108.672V110.848H99.024V108.672H89.04ZM87.904 107.68H100.208V111.824H87.904V107.68Z" fill="white"/>
<rect x="40" y="28" width="60" height="60" fill="#D9D9D9"/>
<path d="M72.119 60.4924C75.7831 54.1748 73.6017 46.0716 67.2506 42.4212C60.8995 38.7764 52.7533 40.9463 49.0835 47.2639C47.3054 50.3266 46.8339 53.8866 47.7542 57.2997C48.6745 60.7128 50.8729 63.5664 53.9519 65.3294C56.0424 66.5274 58.3261 67.0981 60.5814 67.0981C65.1828 67.0981 69.6592 64.7248 72.119 60.4867V60.4924ZM54.804 63.8659C49.2653 60.6845 47.3622 53.621 50.5605 48.1115C52.7078 44.4159 56.6105 42.3477 60.6211 42.3477C62.5867 42.3477 64.5749 42.845 66.3985 43.8904C71.9372 47.0718 73.8403 54.1352 70.642 59.6448C67.4437 65.1543 60.3371 67.0473 54.804 63.8659Z" fill="#747474"/>
<path d="M99.7048 56.2827L77.8169 38.0137C77.4987 37.7481 77.0386 37.7481 76.7205 38.0137L73.3915 40.7883C72.1929 39.4151 70.7557 38.2172 69.0855 37.2565C60.9847 32.6059 50.5833 35.3748 45.908 43.4385C43.6414 47.3432 43.0392 51.8921 44.2151 56.2488C45.1809 59.8258 47.2487 62.9224 50.1288 65.1601L47.8111 69.1552C47.2259 69.336 46.7033 69.7203 46.3738 70.291L40.3408 80.6828C40 81.2648 39.9148 81.9486 40.0852 82.5984C40.2613 83.2483 40.6817 83.7907 41.2668 84.1298L42.1928 84.6609C42.5847 84.887 43.0165 85 43.4539 85C43.6755 85 43.897 84.9717 44.1129 84.9152C44.7662 84.7401 45.3115 84.3219 45.6524 83.7399L51.6853 73.3481C52.0148 72.783 52.0887 72.1388 51.958 71.5455L54.2758 67.5504C56.2868 68.3584 58.417 68.7766 60.57 68.7766C60.6382 68.7766 60.7121 68.7709 60.7802 68.7709V78.479C60.7802 78.948 61.1609 79.3266 61.6324 79.3266H92.8993C93.3708 79.3266 93.7514 78.948 93.7514 78.479V59.255L95.7794 60.9446C95.9328 61.0746 96.126 61.1424 96.3248 61.1424C96.3475 61.1424 96.3759 61.1424 96.3986 61.1424C96.6259 61.1254 96.8304 61.0124 96.9781 60.8429L99.8014 57.492C100.102 57.136 100.057 56.5992 99.6935 56.2997L99.7048 56.2827ZM50.214 72.4948L44.181 82.8866C44.0674 83.0787 43.8913 83.2143 43.6755 83.2709C43.4596 83.3274 43.238 83.2991 43.0449 83.1861L42.1189 82.6549C41.9258 82.5419 41.7894 82.3667 41.7326 82.152C41.6758 81.9373 41.7042 81.7169 41.8178 81.5248L47.8508 71.1273C48.0042 70.8617 48.2826 70.7148 48.5723 70.7148C48.7143 70.7148 48.8563 70.7487 48.987 70.8278L49.9073 71.359C50.3049 71.585 50.4412 72.0936 50.214 72.4892V72.4948ZM50.89 69.9915C50.8446 69.9633 50.8048 69.9237 50.7594 69.8955L49.8391 69.3643C49.7936 69.336 49.7425 69.3247 49.6914 69.2965L51.5263 66.132C51.7194 66.2563 51.9182 66.375 52.1171 66.488C52.3159 66.601 52.5261 66.7084 52.7306 66.8158L50.89 69.9859V69.9915ZM52.9692 65.0301C49.4358 63.0015 46.9135 59.7297 45.8569 55.808C44.8002 51.8921 45.3456 47.8009 47.3793 44.2861C50.2083 39.4208 55.3494 36.6971 60.6269 36.6971C63.2173 36.6971 65.8361 37.3526 68.2334 38.7257C75.5218 42.913 78.027 52.2198 73.8233 59.4698C71.7839 62.9845 68.4947 65.4935 64.5523 66.5445C60.6155 67.5956 56.5026 67.0531 52.9692 65.0301ZM80.6288 77.6201H73.9142V68.1889C73.9142 66.3468 75.4196 64.8493 77.2715 64.8493C79.1234 64.8493 80.6288 66.3468 80.6288 68.1889V77.6201ZM92.0585 77.6201H82.3387V68.1889C82.3387 65.4144 80.0664 63.1541 77.2772 63.1541C74.4879 63.1541 72.2156 65.4144 72.2156 68.1889V77.6201H62.4958V68.6523C63.3366 68.5562 64.1717 68.4093 65.001 68.1833C69.3809 67.0192 73.0393 64.2221 75.306 60.3174C77.9134 55.825 78.1975 50.6263 76.5387 46.0944L77.2772 45.4784L92.0642 57.8141V77.6144L92.0585 77.6201ZM96.2282 59.0855L77.8169 43.721C77.4987 43.4554 77.0386 43.4554 76.7205 43.721L75.8399 44.4556C75.4423 43.6476 74.9765 42.8678 74.4482 42.1219L77.2715 39.7655L97.9552 57.0286L96.2282 59.0799V59.0855Z" fill="#747474"/>
<path d="M71.1759 51.4567C70.8749 51.1007 70.3352 51.0498 69.9773 51.3549L58.3204 61.0912L56.5877 59.04L69.2274 48.49C69.5853 48.1905 69.6365 47.6537 69.3297 47.2977C69.0286 46.9417 68.4889 46.8908 68.1311 47.196L54.8381 58.2885C54.6676 58.4354 54.554 58.6388 54.537 58.8648C54.5199 59.0909 54.5881 59.3112 54.7358 59.4808L57.5648 62.8317C57.7353 63.0295 57.9738 63.1368 58.2181 63.1368C58.4113 63.1368 58.6044 63.069 58.7635 62.9391L60.7915 61.2438V63.8714C60.7915 64.3404 61.1721 64.719 61.6436 64.719C62.1151 64.719 62.4957 64.3404 62.4957 63.8714V59.8198L71.0737 52.6546C71.4316 52.3551 71.4827 51.8183 71.1759 51.4623V51.4567Z" fill="#747474"/>
</svg>
