<svg width="140" height="140" viewBox="0 0 140 140" fill="none" xmlns="http://www.w3.org/2000/svg">
<circle cx="70" cy="70" r="70" fill="#51C5FF"/>
<path d="M45.344 104.56H46.56V117.936C46.56 118.299 46.5013 118.565 46.384 118.736C46.2773 118.917 46.096 119.051 45.84 119.136C45.5947 119.221 45.2533 119.275 44.816 119.296C44.3893 119.317 43.84 119.328 43.168 119.328C43.136 119.179 43.0773 119.003 42.992 118.8C42.9067 118.608 42.8213 118.448 42.736 118.32C43.056 118.331 43.3653 118.336 43.664 118.336C43.9733 118.336 44.24 118.331 44.464 118.32C44.6987 118.32 44.8587 118.32 44.944 118.32C45.0933 118.309 45.1947 118.277 45.248 118.224C45.312 118.171 45.344 118.075 45.344 117.936V104.56ZM39.072 105.84H52.96V106.832H39.072V105.84ZM41.904 108.624V109.76H50.144V108.624H41.904ZM40.752 107.776H51.36V110.608H40.752V107.776ZM40.288 111.744H51.616V117.552H50.4V112.624H40.288V111.744ZM38.768 113.744H53.28V114.704H38.768V113.744ZM40.144 115.904H51.024V116.848H40.144V115.904ZM55.024 114.432H69.04V115.456H55.024V114.432ZM55.072 107.408H68.976V108.432H55.072V107.408ZM55.728 110.16H68.4V111.152H55.728V110.16ZM56.528 112.32H67.616V113.248H56.528V112.32ZM61.376 110.624H62.576V119.28H61.376V110.624ZM59.904 104.544H61.04V107.904H59.904V104.544ZM62.944 104.544H64.096V107.84H62.944V104.544ZM60.992 114.848L61.952 115.296C61.4613 115.84 60.8533 116.357 60.128 116.848C59.4027 117.328 58.6293 117.749 57.808 118.112C56.9867 118.485 56.176 118.784 55.376 119.008C55.3227 118.901 55.248 118.784 55.152 118.656C55.0667 118.539 54.976 118.416 54.88 118.288C54.784 118.171 54.688 118.075 54.592 118C55.3813 117.819 56.1813 117.568 56.992 117.248C57.8027 116.928 58.56 116.56 59.264 116.144C59.968 115.728 60.544 115.296 60.992 114.848ZM62.944 114.816C63.2853 115.168 63.696 115.509 64.176 115.84C64.6667 116.171 65.2 116.475 65.776 116.752C66.3627 117.029 66.9653 117.275 67.584 117.488C68.2027 117.691 68.816 117.861 69.424 118C69.3387 118.085 69.2427 118.187 69.136 118.304C69.04 118.432 68.944 118.56 68.848 118.688C68.752 118.827 68.6773 118.949 68.624 119.056C68.016 118.885 67.3973 118.672 66.768 118.416C66.1493 118.16 65.5467 117.867 64.96 117.536C64.384 117.205 63.84 116.843 63.328 116.448C62.8267 116.053 62.3893 115.643 62.016 115.216L62.944 114.816ZM66.656 104.752L67.888 105.088C67.6533 105.515 67.4027 105.952 67.136 106.4C66.8693 106.837 66.624 107.216 66.4 107.536L65.424 107.2C65.5733 106.976 65.7227 106.72 65.872 106.432C66.032 106.144 66.1813 105.851 66.32 105.552C66.4587 105.253 66.5707 104.987 66.656 104.752ZM64.512 108.128L65.744 108.448C65.552 108.8 65.3547 109.152 65.152 109.504C64.9493 109.845 64.7573 110.149 64.576 110.416L63.584 110.112C63.744 109.824 63.9093 109.493 64.08 109.12C64.2613 108.747 64.4053 108.416 64.512 108.128ZM56.368 105.072L57.392 104.72C57.6693 105.072 57.936 105.472 58.192 105.92C58.4587 106.368 58.6507 106.757 58.768 107.088L57.68 107.504C57.5733 107.173 57.392 106.779 57.136 106.32C56.8907 105.861 56.6347 105.445 56.368 105.072ZM58.464 108.544L59.6 108.336C59.7813 108.592 59.952 108.885 60.112 109.216C60.2827 109.536 60.4 109.819 60.464 110.064L59.28 110.304C59.216 110.069 59.104 109.787 58.944 109.456C58.7947 109.115 58.6347 108.811 58.464 108.544ZM77.232 111.056L78.128 110.4C78.5333 110.752 78.96 111.136 79.408 111.552C79.856 111.957 80.2933 112.373 80.72 112.8C81.1467 113.216 81.5467 113.621 81.92 114.016C82.2933 114.4 82.608 114.747 82.864 115.056L81.872 115.84C81.6267 115.52 81.3227 115.163 80.96 114.768C80.608 114.373 80.2187 113.957 79.792 113.52C79.376 113.083 78.944 112.656 78.496 112.24C78.0587 111.813 77.6373 111.419 77.232 111.056ZM77.408 104.56H78.624V107.696C78.624 108.208 78.592 108.747 78.528 109.312C78.4747 109.877 78.3627 110.453 78.192 111.04C78.032 111.627 77.7813 112.213 77.44 112.8C77.1093 113.387 76.6667 113.952 76.112 114.496C75.5573 115.04 74.8693 115.557 74.048 116.048C73.9947 115.952 73.9147 115.851 73.808 115.744C73.712 115.637 73.6053 115.525 73.488 115.408C73.3813 115.291 73.28 115.2 73.184 115.136C73.984 114.709 74.6453 114.251 75.168 113.76C75.6907 113.259 76.1013 112.747 76.4 112.224C76.7093 111.691 76.9333 111.163 77.072 110.64C77.2107 110.117 77.3013 109.605 77.344 109.104C77.3867 108.603 77.408 108.128 77.408 107.68V104.56ZM71.584 107.296H83.808V108.48H72.768V119.312H71.584V107.296ZM83.264 107.296H84.448V117.696C84.448 118.091 84.3947 118.389 84.288 118.592C84.1813 118.805 83.9947 118.965 83.728 119.072C83.44 119.168 83.0453 119.221 82.544 119.232C82.0533 119.253 81.4507 119.264 80.736 119.264C80.7147 119.147 80.6827 119.013 80.64 118.864C80.5973 118.725 80.5493 118.581 80.496 118.432C80.4427 118.283 80.384 118.155 80.32 118.048C80.704 118.059 81.0667 118.064 81.408 118.064C81.76 118.075 82.064 118.08 82.32 118.08C82.5867 118.08 82.768 118.08 82.864 118.08C83.024 118.069 83.1307 118.037 83.184 117.984C83.2373 117.92 83.264 117.819 83.264 117.68V107.296ZM91.296 107.888L92.464 108.272C92.112 108.731 91.7067 109.184 91.248 109.632C90.7893 110.069 90.304 110.48 89.792 110.864C89.2907 111.237 88.7947 111.568 88.304 111.856C88.2507 111.771 88.1707 111.669 88.064 111.552C87.968 111.435 87.8613 111.317 87.744 111.2C87.6373 111.083 87.536 110.987 87.44 110.912C88.176 110.549 88.8853 110.101 89.568 109.568C90.2613 109.035 90.8373 108.475 91.296 107.888ZM95.392 108.576L96.208 107.872C96.6987 108.16 97.2107 108.491 97.744 108.864C98.2773 109.227 98.7787 109.595 99.248 109.968C99.728 110.331 100.117 110.661 100.416 110.96L99.536 111.776C99.248 111.477 98.8747 111.136 98.416 110.752C97.9573 110.368 97.4613 109.984 96.928 109.6C96.4053 109.216 95.8933 108.875 95.392 108.576ZM94.016 110.784C93.5787 111.36 93.0133 111.957 92.32 112.576C91.6267 113.184 90.8587 113.776 90.016 114.352C89.1733 114.917 88.304 115.419 87.408 115.856C87.3653 115.749 87.3013 115.637 87.216 115.52C87.1413 115.403 87.0613 115.285 86.976 115.168C86.8907 115.04 86.8053 114.933 86.72 114.848C87.6267 114.443 88.5067 113.952 89.36 113.376C90.2133 112.8 90.9867 112.192 91.68 111.552C92.3733 110.901 92.928 110.277 93.344 109.68H94.56C94.9867 110.181 95.4667 110.677 96 111.168C96.544 111.659 97.12 112.123 97.728 112.56C98.336 112.987 98.9547 113.376 99.584 113.728C100.224 114.08 100.853 114.379 101.472 114.624C101.344 114.773 101.211 114.949 101.072 115.152C100.933 115.355 100.811 115.541 100.704 115.712C100.117 115.424 99.504 115.093 98.864 114.72C98.2347 114.336 97.6213 113.925 97.024 113.488C96.4267 113.051 95.8667 112.603 95.344 112.144C94.832 111.685 94.3893 111.232 94.016 110.784ZM89.6 113.92H98.448V119.232H97.232V114.992H90.752V119.296H89.6V113.92ZM90.144 117.68H97.872V118.752H90.144V117.68ZM93.344 104.56H94.576V106.64H93.344V104.56ZM87.328 106.032H100.688V108.944H99.456V107.136H88.496V108.944H87.328V106.032Z" fill="white"/>
<rect x="40" y="28" width="60" height="60" fill="#D9D9D9"/>
<path fill-rule="evenodd" clip-rule="evenodd" d="M95.566 82.9364V36.0286C95.566 35.46 95.1047 35 94.5346 35H60.2013C59.6311 35 59.1698 35.46 59.1698 36.0286V55.5469H46.4654C45.8952 55.5469 45.434 56.0069 45.434 56.5755V82.9428H43.0315C42.4613 82.9428 42 83.4028 42 83.9714C42 84.54 42.4613 85 43.0315 85H97.9685C98.5387 85 99 84.54 99 83.9714C99 83.4028 98.5387 82.9428 97.9685 82.9428H95.566V82.9364ZM93.5031 82.9364H61.2264V37.0572H93.5031V82.9428V82.9364ZM59.1698 57.5977V82.9364H47.4969V57.5977H59.1698ZM75.3082 56.9141C75.3082 56.3455 74.8469 55.8855 74.2767 55.8855H67.4088C66.8386 55.8855 66.3773 56.3455 66.3773 56.9141V63.7631C66.3773 64.3317 66.8386 64.7917 67.4088 64.7917H74.2767C74.8469 64.7917 75.3082 64.3317 75.3082 63.7631V56.9141ZM88.3521 56.9141C88.3521 56.3455 87.8909 55.8855 87.3207 55.8855H80.4527C79.8825 55.8855 79.4213 56.3455 79.4213 56.9141V63.7631C79.4213 64.3317 79.8825 64.7917 80.4527 64.7917H87.3207C87.8909 64.7917 88.3521 64.3317 88.3521 63.7631V56.9141ZM73.2452 57.9428V62.7345H68.4403V57.9428H73.2452ZM86.2956 57.9428V62.7345H81.4906V57.9428H86.2956ZM75.3082 43.8998C75.3082 43.3312 74.8469 42.8712 74.2767 42.8712H67.4088C66.8386 42.8712 66.3773 43.3312 66.3773 43.8998V50.7488C66.3773 51.3174 66.8386 51.7774 67.4088 51.7774H74.2767C74.8469 51.7774 75.3082 51.3174 75.3082 50.7488V43.8998ZM88.3521 43.8998C88.3521 43.3312 87.8909 42.8712 87.3207 42.8712H80.4527C79.8825 42.8712 79.4213 43.3312 79.4213 43.8998V50.7488C79.4213 51.3174 79.8825 51.7774 80.4527 51.7774H87.3207C87.8909 51.7774 88.3521 51.3174 88.3521 50.7488V43.8998ZM73.2452 44.9284V49.7202H68.4403V44.9284H73.2452ZM86.2956 44.9284V49.7202H81.4906V44.9284H86.2956Z" fill="#747474"/>
</svg>
