<svg width="134" height="26" viewBox="0 0 134 26" fill="none" xmlns="http://www.w3.org/2000/svg">
<path d="M42.408 8.928H49.492V9.88H42.408V8.928ZM42.66 11.714H49.198V12.666H42.66V11.714ZM41.96 14.654H49.702V15.634H41.96V14.654ZM45.348 9.264H46.384V19.12H45.348V9.264ZM47.854 6.212L48.876 6.562C48.6707 6.982 48.456 7.42067 48.232 7.878C48.008 8.326 47.7933 8.70867 47.588 9.026L46.776 8.718C46.8973 8.494 47.0233 8.23733 47.154 7.948C47.294 7.64933 47.4247 7.35067 47.546 7.052C47.6767 6.744 47.7793 6.464 47.854 6.212ZM43.01 6.632L43.864 6.31C44.0973 6.68333 44.3167 7.094 44.522 7.542C44.7367 7.99 44.886 8.37733 44.97 8.704L44.06 9.068C43.976 8.732 43.8313 8.33533 43.626 7.878C43.43 7.42067 43.2247 7.00533 43.01 6.632ZM37.424 10.482H41.596V11.308H37.424V10.482ZM37.48 6.73H41.568V7.57H37.48V6.73ZM37.424 12.344H41.596V13.184H37.424V12.344ZM36.752 8.564H42.086V9.446H36.752V8.564ZM37.914 14.234H41.582V18.322H37.914V17.454H40.658V15.116H37.914V14.234ZM37.396 14.234H38.32V18.966H37.396V14.234ZM55.12 7.094C55.0827 7.32733 55.0547 7.56533 55.036 7.808C55.0173 8.04133 55.0033 8.27467 54.994 8.508C54.9753 8.9 54.9567 9.38533 54.938 9.964C54.9193 10.5427 54.9007 11.1587 54.882 11.812C54.8633 12.456 54.8493 13.1 54.84 13.744C54.8307 14.388 54.826 14.9667 54.826 15.48C54.826 15.9933 54.924 16.404 55.12 16.712C55.316 17.02 55.5867 17.2393 55.932 17.37C56.2773 17.5007 56.674 17.566 57.122 17.566C57.7567 17.566 58.3307 17.4867 58.844 17.328C59.3573 17.16 59.8147 16.9407 60.216 16.67C60.6173 16.39 60.972 16.0773 61.28 15.732C61.5973 15.3867 61.882 15.032 62.134 14.668L62.932 15.62C62.6893 15.956 62.3907 16.306 62.036 16.67C61.6907 17.0247 61.28 17.356 60.804 17.664C60.328 17.972 59.7773 18.224 59.152 18.42C58.536 18.616 57.8453 18.714 57.08 18.714C56.4173 18.714 55.8293 18.6113 55.316 18.406C54.8027 18.2007 54.4013 17.8693 54.112 17.412C53.8227 16.9547 53.678 16.348 53.678 15.592C53.678 15.172 53.6827 14.71 53.692 14.206C53.7013 13.6927 53.7153 13.1653 53.734 12.624C53.7527 12.0827 53.7667 11.5553 53.776 11.042C53.7853 10.5193 53.7947 10.0387 53.804 9.6C53.8133 9.16133 53.818 8.79733 53.818 8.508C53.818 8.24667 53.8087 7.99467 53.79 7.752C53.7713 7.50933 53.7433 7.28533 53.706 7.08L55.12 7.094ZM74.356 7.668C74.2067 7.78 74.0387 7.92 73.852 8.088C73.6653 8.24667 73.5113 8.37267 73.39 8.466C73.1473 8.68067 72.8533 8.93267 72.508 9.222C72.1627 9.502 71.7987 9.80067 71.416 10.118C71.0333 10.426 70.6647 10.7247 70.31 11.014C69.9553 11.294 69.6473 11.546 69.386 11.77C69.106 12.0127 68.9193 12.2133 68.826 12.372C68.7327 12.5213 68.7327 12.6753 68.826 12.834C68.9287 12.9927 69.1293 13.2027 69.428 13.464C69.6893 13.6693 69.988 13.912 70.324 14.192C70.66 14.4627 71.0147 14.7567 71.388 15.074C71.7707 15.3913 72.158 15.718 72.55 16.054C72.942 16.39 73.32 16.7213 73.684 17.048C74.048 17.3747 74.3747 17.6873 74.664 17.986L73.67 18.91C73.3807 18.574 73.0587 18.2333 72.704 17.888C72.4613 17.636 72.158 17.342 71.794 17.006C71.43 16.67 71.038 16.32 70.618 15.956C70.2073 15.592 69.7967 15.242 69.386 14.906C68.9847 14.5607 68.6207 14.2527 68.294 13.982C67.846 13.6087 67.5613 13.282 67.44 13.002C67.3187 12.7127 67.342 12.428 67.51 12.148C67.678 11.868 67.972 11.5553 68.392 11.21C68.6533 10.986 68.966 10.7247 69.33 10.426C69.7033 10.1273 70.0907 9.81467 70.492 9.488C70.8933 9.152 71.2713 8.83 71.626 8.522C71.99 8.20467 72.2887 7.92467 72.522 7.682C72.662 7.542 72.8067 7.38333 72.956 7.206C73.1147 7.02867 73.236 6.87467 73.32 6.744L74.356 7.668ZM82.252 9.992V11.434H89.028V9.992H82.252ZM82.252 12.33V13.786H89.028V12.33H82.252ZM82.252 7.668V9.11H89.028V7.668H82.252ZM81.23 6.73H90.092V14.724H81.23V6.73ZM86.536 14.038H87.6V17.538C87.6 17.734 87.6467 17.8647 87.74 17.93C87.8333 17.986 88.0293 18.014 88.328 18.014C88.3933 18.014 88.5193 18.014 88.706 18.014C88.8927 18.014 89.098 18.014 89.322 18.014C89.5553 18.014 89.77 18.014 89.966 18.014C90.1713 18.014 90.3207 18.014 90.414 18.014C90.61 18.014 90.7547 17.9673 90.848 17.874C90.9413 17.7807 91.0067 17.594 91.044 17.314C91.0907 17.034 91.1233 16.6047 91.142 16.026C91.2167 16.082 91.31 16.1427 91.422 16.208C91.534 16.264 91.6507 16.3153 91.772 16.362C91.9027 16.3993 92.0147 16.432 92.108 16.46C92.0707 17.132 92.0007 17.6547 91.898 18.028C91.7953 18.4013 91.632 18.658 91.408 18.798C91.1933 18.938 90.89 19.008 90.498 19.008C90.442 19.008 90.3347 19.008 90.176 19.008C90.0267 19.008 89.8493 19.008 89.644 19.008C89.448 19.008 89.2473 19.008 89.042 19.008C88.846 19.008 88.6733 19.008 88.524 19.008C88.384 19.008 88.286 19.008 88.23 19.008C87.782 19.008 87.432 18.966 87.18 18.882C86.9373 18.798 86.7693 18.644 86.676 18.42C86.5827 18.2053 86.536 17.9113 86.536 17.538V14.038ZM83.176 14.346H84.296C84.2213 14.962 84.1 15.522 83.932 16.026C83.7733 16.53 83.5307 16.9827 83.204 17.384C82.8773 17.776 82.4387 18.1167 81.888 18.406C81.3373 18.6953 80.6373 18.938 79.788 19.134C79.76 19.0407 79.7133 18.9333 79.648 18.812C79.5827 18.7 79.508 18.588 79.424 18.476C79.34 18.3733 79.2607 18.2847 79.186 18.21C79.9607 18.0513 80.5907 17.8553 81.076 17.622C81.5707 17.3887 81.958 17.118 82.238 16.81C82.5273 16.4927 82.7373 16.1287 82.868 15.718C83.008 15.3073 83.1107 14.85 83.176 14.346ZM96.112 7.682C96.2707 7.70067 96.4387 7.71467 96.616 7.724C96.8027 7.73333 96.966 7.738 97.106 7.738C97.246 7.738 97.4747 7.73333 97.792 7.724C98.1187 7.71467 98.4827 7.70533 98.884 7.696C99.2947 7.67733 99.7007 7.66333 100.102 7.654C100.513 7.63533 100.877 7.61667 101.194 7.598C101.521 7.57933 101.759 7.56533 101.908 7.556C102.113 7.53733 102.272 7.51867 102.384 7.5C102.496 7.48133 102.589 7.46267 102.664 7.444L103.308 8.256C103.187 8.34 103.056 8.42867 102.916 8.522C102.785 8.61533 102.655 8.718 102.524 8.83C102.347 8.96067 102.109 9.152 101.81 9.404C101.511 9.64667 101.18 9.922 100.816 10.23C100.461 10.5287 100.111 10.8227 99.766 11.112C99.4207 11.4013 99.108 11.6627 98.828 11.896C99.1547 11.784 99.4813 11.7093 99.808 11.672C100.144 11.6253 100.466 11.602 100.774 11.602C101.549 11.602 102.235 11.7467 102.832 12.036C103.439 12.316 103.91 12.7033 104.246 13.198C104.591 13.6927 104.764 14.2573 104.764 14.892C104.764 15.6387 104.568 16.292 104.176 16.852C103.784 17.412 103.229 17.8413 102.51 18.14C101.791 18.448 100.937 18.602 99.948 18.602C99.3133 18.602 98.7673 18.518 98.31 18.35C97.8527 18.182 97.498 17.9487 97.246 17.65C97.0033 17.3513 96.882 17.006 96.882 16.614C96.882 16.2967 96.9707 15.998 97.148 15.718C97.3253 15.438 97.5773 15.214 97.904 15.046C98.2307 14.878 98.6087 14.794 99.038 14.794C99.6633 14.794 100.181 14.9247 100.592 15.186C101.003 15.438 101.32 15.774 101.544 16.194C101.768 16.6047 101.894 17.048 101.922 17.524L100.914 17.692C100.877 17.0947 100.69 16.6047 100.354 16.222C100.027 15.83 99.584 15.634 99.024 15.634C98.7067 15.634 98.4407 15.7227 98.226 15.9C98.0113 16.0773 97.904 16.2873 97.904 16.53C97.904 16.866 98.0767 17.132 98.422 17.328C98.7673 17.524 99.2153 17.622 99.766 17.622C100.559 17.622 101.245 17.5147 101.824 17.3C102.412 17.0853 102.86 16.7727 103.168 16.362C103.485 15.9513 103.644 15.4567 103.644 14.878C103.644 14.4207 103.509 14.01 103.238 13.646C102.967 13.282 102.594 12.9973 102.118 12.792C101.651 12.5773 101.115 12.47 100.508 12.47C99.92 12.47 99.3927 12.5353 98.926 12.666C98.4593 12.7873 98.0207 12.9647 97.61 13.198C97.2087 13.4313 96.8073 13.7253 96.406 14.08C96.014 14.4253 95.594 14.822 95.146 15.27L94.348 14.444C94.6373 14.2107 94.9547 13.9493 95.3 13.66C95.6547 13.3613 96.0093 13.0673 96.364 12.778C96.7187 12.4793 97.0453 12.204 97.344 11.952C97.652 11.6907 97.9087 11.476 98.114 11.308C98.31 11.1493 98.5527 10.9487 98.842 10.706C99.1407 10.454 99.4487 10.1927 99.766 9.922C100.083 9.65133 100.382 9.39467 100.662 9.152C100.951 8.90933 101.185 8.71333 101.362 8.564C101.213 8.564 100.993 8.57333 100.704 8.592C100.415 8.60133 100.093 8.61533 99.738 8.634C99.3833 8.64333 99.0287 8.65733 98.674 8.676C98.3287 8.69467 98.0113 8.71333 97.722 8.732C97.442 8.74133 97.2273 8.75067 97.078 8.76C96.9287 8.76933 96.7747 8.77867 96.616 8.788C96.4573 8.79733 96.3033 8.816 96.154 8.844L96.112 7.682Z" fill="#51C5FF"/>
<rect x="1" y="1" width="132" height="24" rx="11" stroke="#51C5FF" stroke-width="2"/>
<path d="M31 13.5L24.25 17.3971L24.25 9.60289L31 13.5Z" fill="#51C5FF"/>
</svg>
